<svg xmlns="http://www.w3.org/2000/svg" viewBox="0 0 500 500"><g id="freepik--background-complete--inject-195"><rect x="416.78" y="398.49" width="33.12" height="0.25" style="fill:#ebebeb"></rect><rect x="322.53" y="401.21" width="8.69" height="0.25" style="fill:#ebebeb"></rect><rect x="396.59" y="389.21" width="19.19" height="0.25" style="fill:#ebebeb"></rect><rect x="52.46" y="390.89" width="43.19" height="0.25" style="fill:#ebebeb"></rect><rect x="104.56" y="390.89" width="6.33" height="0.25" style="fill:#ebebeb"></rect><rect x="131.47" y="395.11" width="93.68" height="0.25" style="fill:#ebebeb"></rect><path d="M237,337.8H43.92a5.71,5.71,0,0,1-5.71-5.71V60.66A5.71,5.71,0,0,1,43.92,55H237a5.71,5.71,0,0,1,5.71,5.71V332.09A5.71,5.71,0,0,1,237,337.8ZM43.92,55.2a5.47,5.47,0,0,0-5.46,5.46V332.09a5.47,5.47,0,0,0,5.46,5.46H237a5.47,5.47,0,0,0,5.46-5.46V60.66A5.47,5.47,0,0,0,237,55.2Z" style="fill:#ebebeb"></path><path d="M453.31,337.8H260.21a5.72,5.72,0,0,1-5.71-5.71V60.66A5.72,5.72,0,0,1,260.21,55h193.1A5.71,5.71,0,0,1,459,60.66V332.09A5.71,5.71,0,0,1,453.31,337.8ZM260.21,55.2a5.47,5.47,0,0,0-5.46,5.46V332.09a5.47,5.47,0,0,0,5.46,5.46h193.1a5.47,5.47,0,0,0,5.46-5.46V60.66a5.47,5.47,0,0,0-5.46-5.46Z" style="fill:#ebebeb"></path><rect y="382.4" width="500" height="0.25" style="fill:#ebebeb"></rect><rect x="328.21" y="92.82" width="75.86" height="112.23" style="fill:#f5f5f5"></rect><path d="M404.07,95H328.21A2.18,2.18,0,0,1,326,92.82h0a2.17,2.17,0,0,1,2.17-2.17h75.86a2.18,2.18,0,0,1,2.18,2.17h0A2.19,2.19,0,0,1,404.07,95Z" style="fill:#ebebeb"></path><path d="M404.07,207.23H328.21a2.17,2.17,0,0,1-2.17-2.17h0a2.18,2.18,0,0,1,2.17-2.18h75.86a2.19,2.19,0,0,1,2.18,2.18h0A2.18,2.18,0,0,1,404.07,207.23Z" style="fill:#ebebeb"></path><path d="M377.2,124.53c0-2.31-2.4-3.43-4-5.73-2.23-3.21-3.48-5.74-6.94-5.74s-4.71,2.53-6.94,5.74c-1.6,2.3-4,3.42-4,5.73,0,1,.65,1.8.8,2.79.34,2.2-.8,4.53-.8,7,0,10.28,4.9,18.62,10.94,18.62s10.94-8.34,10.94-18.62c0-2.48-1.14-4.81-.8-7C376.55,126.33,377.2,125.52,377.2,124.53Z" style="fill:#e6e6e6"></path><path d="M366.6,144.83s4.63-5.77,4.63-12.89-4.63-12.88-4.63-12.88S362,124.83,362,131.94,366.6,144.83,366.6,144.83Z" style="fill:#e0e0e0"></path><path d="M362.57,132.86a2.9,2.9,0,0,0,2.47,3.53c1,.21,2,.15,3,.35.5.11,1.45.19.64.49-1.06.39-2.5-.09-3.63.18-.68.16-1.41.55-1.31,1.37s1.05,1.08,1.75,1.23a15.7,15.7,0,0,1,1.82.3c1,.35.24.44-.46.49s-1.85-.07-2,.83c-.11.67.91,1,1,.28,0-.08,5-.19,2.69-2.2-.75-.65-2-.53-2.95-.75-1.09-.26-.55-.52.31-.6.66-.06,1.33,0,2,0s1.7.05,2.09-.58a1.25,1.25,0,0,0-.39-1.56c-1.53-1.23-6.83.17-6.05-3,.16-.66-.86-.94-1-.28Z" style="fill:#f5f5f5"></path><path d="M370.21,131.51c0,1.29-1.71,1.49-3.81,1.49s-3.81-.2-3.81-1.49,1.7-2.33,3.81-2.33S370.21,130.22,370.21,131.51Z" style="fill:#f5f5f5"></path><path d="M357.44,129.89s-6.08,6.17-7.62,6.17-4.68-7.42-4.24-10.13c.23-1.43,3.08-4.72,2.12-5.4s-2.8,3.28-4,3.18-1.54-8.87-2.79-8.48,1,8.29,0,8.29-6.27-7.81-6.85-6.75,5.69,7.91,4.63,8.29-5-1.63-5.4-.48,6.64,2.19,8.39,3.67c2.73,2.31,5.69,12.05,7.71,12.05s8-6,8-6Z" style="fill:#e6e6e6"></path><path d="M375,129.94s6,6.14,7.58,6.14,4.65-7.38,4.22-10.08c-.23-1.42-3.07-4.7-2.11-5.37s2.78,3.26,3.93,3.16,1.54-8.82,2.78-8.44-1,8.25,0,8.25,6.24-7.77,6.82-6.71-5.67,7.86-4.61,8.25,5-1.63,5.37-.48-6.61,2.17-8.34,3.64c-2.72,2.31-5.67,12-7.68,12s-8-6-8-6Z" style="fill:#e6e6e6"></path><path d="M357.44,143s-16.95,12.48-16.12,16.48,14.7,5.88,14,7.76a13.38,13.38,0,0,1-4.24,5.53c-2.77,1.67-12.35,3.53-12,4.83s5.88-.71,6.71,0-6.83,7.29-5.77,8.47,7.17-6.12,8.23-5.41-2.23,8-.82,8.47,4.24-11.3,5.06-11.18.12,5.29,1.18,5.41.6-6.15,1.18-8.12c.76-2.59,4.35-6.94,4.11-10s-10.94-4.47-11.17-6.12,3.77.82,17.94-7.47Z" style="fill:#e6e6e6"></path><path d="M375.58,143s16.95,12.48,16.12,16.48-14.71,5.88-14,7.76a13.38,13.38,0,0,0,4.24,5.53c2.77,1.67,12.35,3.53,12,4.83s-5.89-.71-6.71,0,6.82,7.29,5.77,8.47-7.17-6.12-8.24-5.41,2.24,8,.82,8.47-4.23-11.3-5.06-11.18-.11,5.29-1.17,5.41-.6-6.15-1.18-8.12c-.77-2.59-4.35-6.94-4.12-10s10.94-4.47,11.18-6.12-3.77.82-18-7.47Z" style="fill:#e6e6e6"></path><path d="M366.6,144.83S362,139.06,362,131.94s4.63-12.88,4.63-12.88a16.85,16.85,0,0,0-6.84,12.88C359.41,140.59,366.6,144.83,366.6,144.83Z" style="fill:#f5f5f5"></path><path d="M366.6,144.83s4.63-5.77,4.63-12.89-4.63-12.88-4.63-12.88a16.88,16.88,0,0,1,6.84,12.88C373.79,140.59,366.6,144.83,366.6,144.83Z" style="fill:#f5f5f5"></path><rect x="198.16" y="92.82" width="104.86" height="82.23" style="fill:#f0f0f0"></rect><path d="M303,95H198.16A2.19,2.19,0,0,1,196,92.82h0a2.18,2.18,0,0,1,2.18-2.17H303a2.18,2.18,0,0,1,2.18,2.17h0A2.19,2.19,0,0,1,303,95Z" style="fill:#e6e6e6"></path><path d="M303,177.23H198.16a2.18,2.18,0,0,1-2.18-2.17h0a2.19,2.19,0,0,1,2.18-2.18H303a2.19,2.19,0,0,1,2.18,2.18h0A2.18,2.18,0,0,1,303,177.23Z" style="fill:#e6e6e6"></path><path d="M209.27,147.43c3.25-3.16,8-4,12.29-4.62s9.07-.91,13.36-2.41a14.17,14.17,0,0,0,8.76-7.89c1.76-4.09,2.15-8.62,2.72-13,.64-4.86,1.29-10.42,4.87-14.1.75-.77-.43-2-1.18-1.18-6.3,6.49-4.73,17-7.05,25.12-1.27,4.41-3.86,7.69-8.23,9.31s-8.87,1.84-13.32,2.46c-4.75.67-9.83,1.64-13.4,5.11-.77.75.41,1.93,1.18,1.18Z" style="fill:#e0e0e0"></path><path d="M219.77,157.93c6.31-6.49,4.74-17,7.06-25.11,1.27-4.41,3.86-7.7,8.23-9.31s8.87-1.85,13.31-2.47c4.75-.67,9.83-1.64,13.4-5.11.77-.75-.41-1.93-1.18-1.18-3.24,3.16-8,4-12.28,4.62s-9.08.92-13.36,2.41a14.22,14.22,0,0,0-8.77,7.9c-1.76,4.08-2.15,8.61-2.72,13-.63,4.86-1.29,10.41-4.87,14.09-.74.77.43,1.95,1.18,1.18Z" style="fill:#e0e0e0"></path><path d="M252.05,106.8l7.17,7.17a.42.42,0,0,0,.59-.59l-7.17-7.17a.42.42,0,0,0-.59.59Z" style="fill:#e0e0e0"></path><path d="M249.61,110l6.45,6.45a.42.42,0,0,0,.59-.59l-6.46-6.45c-.37-.38-1,.21-.58.59Z" style="fill:#e0e0e0"></path><path d="M248.23,114.2l3.59,3.59a.42.42,0,0,0,.59-.59l-3.59-3.58a.41.41,0,0,0-.59.58Z" style="fill:#e0e0e0"></path><path d="M240.68,123.48l1.86,1.87c.38.37,1-.21.59-.59l-1.86-1.87a.42.42,0,0,0-.59.59Z" style="fill:#e0e0e0"></path><path d="M236.48,124.89l4.66,4.66a.42.42,0,0,0,.59-.59l-4.66-4.66a.42.42,0,0,0-.59.59Z" style="fill:#e0e0e0"></path><path d="M232.42,126.44l7.17,7.17a.42.42,0,0,0,.59-.59L233,125.85a.42.42,0,0,0-.59.59Z" style="fill:#e0e0e0"></path><path d="M229.61,129.24l7.17,7.17a.42.42,0,0,0,.59-.59l-7.17-7.17a.42.42,0,0,0-.59.59Z" style="fill:#e0e0e0"></path><path d="M228.06,133.3l4.66,4.66a.42.42,0,0,0,.59-.59l-4.66-4.66a.42.42,0,0,0-.59.59Z" style="fill:#e0e0e0"></path><path d="M226.65,137.51l1.87,1.86a.42.42,0,0,0,.59-.59l-1.87-1.86a.42.42,0,0,0-.59.59Z" style="fill:#e0e0e0"></path><path d="M217.74,155.46l-7.18-7.17c-.37-.38-1,.21-.58.59l7.17,7.17a.42.42,0,0,0,.59-.59Z" style="fill:#e0e0e0"></path><path d="M220.18,152.3l-6.45-6.46a.42.42,0,0,0-.59.59l6.45,6.46a.42.42,0,0,0,.59-.59Z" style="fill:#e0e0e0"></path><path d="M221.55,148.06,218,144.47a.42.42,0,0,0-.59.59l3.58,3.59a.42.42,0,0,0,.59-.59Z" style="fill:#e0e0e0"></path><path d="M278.64,114.35a13,13,0,0,0-12.9,11.49H248.12a1.5,1.5,0,0,0,0,3h17.62a13,13,0,1,0,12.9-14.49Z" style="fill:#fafafa"></path><path d="M250.69,143a10.18,10.18,0,0,0-10.11,9H226.77a1.18,1.18,0,0,0,0,2.36h13.81A10.17,10.17,0,1,0,250.69,143Z" style="fill:#fafafa"></path><path d="M281.24,135.46l-.26-2.09h0l-.09,0-.05,0-.1,0-.41-.13-.13,0q-.27-.1-.54-.24l-.14-.07-.29-.17-.14-.08-.14-.09a.71.71,0,0,1-.14-.1l-.11-.08-.15-.11-.13-.11a5.79,5.79,0,0,1-.71-.69l-.21-.19,2.64,4.66a.63.63,0,0,0,.53.3A.61.61,0,0,0,281.24,135.46Z" style="fill:#f0f0f0"></path><path d="M281.13,134.57l-.15-1.2h0l-.09,0-.05,0-.1,0-.41-.13-.13,0q-.27-.1-.54-.24l-.14-.07-.29-.17-.14-.08-.14-.09-.14-.1-.11-.08-.15-.11-.13-.11a5.79,5.79,0,0,1-.71-.69l-.21-.19,1.34,2.35A5.1,5.1,0,0,0,281.13,134.57Z" style="fill:#e6e6e6"></path><path d="M287.64,128a9.11,9.11,0,0,0-.38-1.56,9.72,9.72,0,0,0-16.63-3.17h0l-.29.36h0a3.86,3.86,0,0,0,3.15,6.1l.33,0a2.54,2.54,0,0,0,2.5,2.1,2.46,2.46,0,0,0,.72-.11,1.14,1.14,0,0,1,1.17.35,5.4,5.4,0,0,0,9.46-3.56A4.07,4.07,0,0,0,287.64,128Z" style="fill:#e0e0e0"></path><g style="opacity:0.6000000000000001"><path d="M284.7,132.16a6.41,6.41,0,0,0-3.86-1.3h-1.59a.28.28,0,0,0,0,.56h1.59a5.8,5.8,0,0,1,3.5,1.17l.27.23a.28.28,0,0,0,.18.06.29.29,0,0,0,.21-.09.27.27,0,0,0,0-.39Z" style="fill:#fafafa"></path><path d="M281.31,126.62h.18l.68.52a.27.27,0,0,0,.17.06.28.28,0,0,0,.22-.11.27.27,0,0,0-.05-.39l-.61-.47.6-.6.21-.21a.28.28,0,0,0-.41-.37l-.2.19a10.43,10.43,0,0,0-.78.82,15.11,15.11,0,0,0-1.76,0,2.41,2.41,0,0,0,.11-1,.26.26,0,0,0-.3-.25.28.28,0,0,0-.25.3,2.06,2.06,0,0,1-.17,1,10.44,10.44,0,0,0-1.92.33,5,5,0,0,1-.77-2.09.29.29,0,0,0-.31-.25.28.28,0,0,0-.24.31,5.33,5.33,0,0,0,.78,2.21,5.15,5.15,0,0,0-1.64,1,3.34,3.34,0,0,0-1.81-1.27.29.29,0,0,0-.35.19.28.28,0,0,0,.2.34,2.78,2.78,0,0,1,1.57,1.16,3.51,3.51,0,0,0-.6,1.14.26.26,0,0,0,.18.34l.08,0a.29.29,0,0,0,.27-.2C275.24,126.52,279.52,126.5,281.31,126.62Z" style="fill:#fafafa"></path><path d="M276.32,120.77a1.3,1.3,0,0,1,1.1,1,.08.08,0,0,0,0,.05,5.46,5.46,0,0,0-.06,2.58v.07a.25.25,0,0,0,.1.2.24.24,0,0,0,.18.07.26.26,0,0,0,.21-.1c.09-.1.07-.19.05-.34-.25-1.42-.21-3.2,1.35-3.53a.27.27,0,0,0,.21-.33.27.27,0,0,0-.32-.21,2.17,2.17,0,0,0-1.39.89,2,2,0,0,0-1.32-.93.27.27,0,0,0-.34.19A.28.28,0,0,0,276.32,120.77Z" style="fill:#fafafa"></path><path d="M285.44,128.51a3.46,3.46,0,0,0,.45-2.18,3.54,3.54,0,0,0-2.41-2.86.28.28,0,0,0-.34.18.27.27,0,0,0,.18.35,2.91,2.91,0,0,1,.69,5.24.27.27,0,0,0-.08.38.26.26,0,0,0,.23.13.28.28,0,0,0,.15,0,3.4,3.4,0,0,0,.82-.74,1.74,1.74,0,0,1,.52,2.09.28.28,0,0,0,.12.38.27.27,0,0,0,.12,0,.29.29,0,0,0,.25-.15A2.3,2.3,0,0,0,285.44,128.51Z" style="fill:#fafafa"></path><path d="M273,123.27a2.07,2.07,0,0,1,1.82-.28.29.29,0,0,0,.35-.18.27.27,0,0,0-.18-.35,2.64,2.64,0,0,0-2.31.36,2.61,2.61,0,0,0-1.05,1.74,1.57,1.57,0,0,0-1.77,1.57.27.27,0,0,0,.27.28h0a.27.27,0,0,0,.28-.28,1,1,0,0,1,.44-.84,1,1,0,0,1,.93-.13.29.29,0,0,0,.37-.26A2.1,2.1,0,0,1,273,123.27Z" style="fill:#fafafa"></path></g><path d="M256.49,153.14c0,2.48-2.76,4.5-6.17,4.5s-6.17-2-6.17-4.5,2.76-4.5,6.17-4.5S256.49,150.65,256.49,153.14Z" style="fill:#e6e6e6"></path><circle cx="248.08" cy="153.14" r="3.25" style="fill:#fafafa"></circle><path d="M250.32,153.14c0,1.24-1,.7-2.24.7s-2.24.54-2.24-.7,1-.7,2.24-.7S250.32,151.9,250.32,153.14Z" style="fill:#e6e6e6"></path></g><g id="freepik--Shadow--inject-195"><ellipse id="freepik--path--inject-195" cx="245.18" cy="412.39" rx="193.89" ry="11.32" style="fill:#f5f5f5"></ellipse></g><g id="freepik--Character--inject-195"><polygon points="312.76 386.53 311.28 405.98 302.52 405.53 302.2 385.39 312.76 386.53" style="fill:#ce7a63"></polygon><path d="M302.19,404.32l9,.27a.73.73,0,0,1,.69.59l1.41,7.4a1.2,1.2,0,0,1-.95,1.42,1.09,1.09,0,0,1-.26,0c-3.25-.16-6.14-.42-10.2-.54-4.78-.14-3.58.47-9.21.38-3.39-.06-3.9-3.93-2.46-4.08,6.61-.63,7.35-2.59,10-4.87A2.88,2.88,0,0,1,302.19,404.32Z" style="fill:#263238"></path><polygon points="349.08 385.87 350.75 404.3 342 405.01 338.48 386.11 349.08 385.87" style="fill:#ce7a63"></polygon><path d="M342.21,403.89l9-.31a.73.73,0,0,1,.73.55l1.88,7.29a1.2,1.2,0,0,1-.85,1.48,1.17,1.17,0,0,1-.26,0c-3.26.05-6.16,0-10.21.12-4.79.16-3.55.69-9.18,1-3.38.16-4.13-3.67-2.7-3.91,6.55-1.05,7.16-3.06,9.62-5.5A2.9,2.9,0,0,1,342.21,403.89Z" style="fill:#263238"></path><path d="M314.07,394.64c.58-5.72,1.9-21.46,2.53-37.81.58-15.16,1.41-30.84-.17-39.51a16.3,16.3,0,0,1,.19-6.56c2.13-9.43,7.49-34.37,7.83-48.32l.32-15.51-26.27-.56s-1.23,55.88-1.05,68.62c.29,21.53,3.41,79.44,3.41,79.44Z" style="fill:#263238"></path><path d="M320.73,265l-2.82-6.92-3.48,4.76s1.1,28.25,2.52,46.45c1.41-6.31,3.77-17.4,5.47-28.1Z" style="opacity:0.2"></path><path d="M351.38,393.25c-.35-6.47-1.91-24.82-3.83-42.7-1.36-12.64-2.55-25.05-5.62-32.87a12.63,12.63,0,0,1-.84-4.87c.08-5.1.23-16.53.27-30,0-10.1,2.54-26.64.37-37.21l-29.37,2s7.54,55.38,9.69,69.16c3.2,20.41,16.35,78.44,16.35,78.44Z" style="fill:#263238"></path><path d="M273.94,212.32l-6.48-7.45a2.49,2.49,0,0,1-.6-1.81l.17-2.59a2.48,2.48,0,0,0-1.32-2.38l-1.88-1a2.45,2.45,0,0,1-.72-.57l-1.65-1.9a2.5,2.5,0,0,0-3.24-.45l-1,.65a2.5,2.5,0,0,0-1,1.36l-1.32,4.27a2.51,2.51,0,0,0,.8,2.66l4.09,3.39,2.36,1.78a2.61,2.61,0,0,1,.52.53l6.63,9.2Z" style="fill:#ce7a63"></path><path d="M309,182.52s-9.68.2-17.29,15.56S279.63,214,277.47,212.56a51.8,51.8,0,0,1-4.25-3.35c-.87-.74-7.3,6.9-6.73,7.72,2.22,3.21,8.19,10.6,15.41,9.18,9.79-1.91,17.77-15.09,18.55-19.25S309,182.52,309,182.52Z" style="fill:#407BFF"></path><path d="M309,182.52s-9.68.2-17.29,15.56S279.63,214,277.47,212.56a51.8,51.8,0,0,1-4.25-3.35c-.87-.74-7.3,6.9-6.73,7.72,2.22,3.21,8.19,10.6,15.41,9.18,9.79-1.91,17.77-15.09,18.55-19.25S309,182.52,309,182.52Z" style="fill:#fff;opacity:0.8"></path><path d="M293.43,218.64c3.94-4.4,6.59-9.47,7-11.78a88.36,88.36,0,0,1,2.85-9l-2.15-8.1S294.6,199.81,293.43,218.64Z" style="opacity:0.1"></path><path d="M341.37,186.63s-6.2-4-6.89-4.14v5.16H309.7v-5l-1,.15-3.1,2.3s-6.56,14.28-8.14,49.76v15.44l43.74-.65Z" style="fill:#407BFF"></path><path d="M327.5,180c-1.47-4.56-1.16-11.1-.66-15.19L317,174.54a11.81,11.81,0,0,1,.62,5.43,2,2,0,0,1-1.71,1.66l-4.07.47-.63,4.1,1.27,2.82,5.14.51,7.2-1.35,9.38-5.42a16.4,16.4,0,0,0-4.11-.77A3.6,3.6,0,0,1,327.5,180Z" style="fill:#ce7a63"></path><path d="M322.82,169.51l-5.7,5.57a12.94,12.94,0,0,1,.55,3.17,8.54,8.54,0,0,0,5.89-5.34C324.05,171.28,323.44,169.65,322.82,169.51Z" style="isolation:isolate;opacity:0.2"></path><path d="M328.33,157.38c-.43,7.5-.3,11.91-4.08,15.77-5.67,5.82-14.95,2.4-16.76-5.06-1.64-6.76-.65-17.87,6.68-20.88a10.25,10.25,0,0,1,14.16,10.17Z" style="fill:#ce7a63"></path><path d="M319.19,156.14a.3.3,0,0,0,.16-.08.39.39,0,0,0-.08-.51A3.59,3.59,0,0,0,316,155a.35.35,0,0,0-.2.46.35.35,0,0,0,.46.21h0a2.87,2.87,0,0,1,2.55.46A.34.34,0,0,0,319.19,156.14Z" style="fill:#263238"></path><path d="M306.53,156.17a.35.35,0,0,0,.34,0,2.83,2.83,0,0,1,2.53-.46.36.36,0,0,0,.46-.2.37.37,0,0,0-.2-.47,3.61,3.61,0,0,0-3.24.54.35.35,0,0,0-.09.49h0A.33.33,0,0,0,306.53,156.17Z" style="fill:#263238"></path><path d="M328.22,160.67A5.79,5.79,0,0,0,324.1,159h-3.45a3.7,3.7,0,0,0-7.38-.17,1.13,1.13,0,0,0-.81,0,3.72,3.72,0,1,0,0,.54.62.62,0,0,1,.77,0,3.7,3.7,0,0,0,7.4.11h3.45a5.3,5.3,0,0,1,3.78,1.56l1.12,1.12.34-.34Zm-19.44,1.77A3.24,3.24,0,1,1,312,159.2,3.24,3.24,0,0,1,308.78,162.44Zm8.17,0a3.24,3.24,0,1,1,3.25-3.24A3.24,3.24,0,0,1,317,162.44Z" style="fill:#407BFF"></path><path d="M328.22,160.67A5.79,5.79,0,0,0,324.1,159h-3.45a3.7,3.7,0,0,0-7.38-.17,1.13,1.13,0,0,0-.81,0,3.72,3.72,0,1,0,0,.54.62.62,0,0,1,.77,0,3.7,3.7,0,0,0,7.4.11h3.45a5.3,5.3,0,0,1,3.78,1.56l1.12,1.12.34-.34Zm-19.44,1.77A3.24,3.24,0,1,1,312,159.2,3.24,3.24,0,0,1,308.78,162.44Zm8.17,0a3.24,3.24,0,1,1,3.25-3.24A3.24,3.24,0,0,1,317,162.44Z" style="fill:#fff;opacity:0.6000000000000001"></path><path d="M312.6,159.6a21.75,21.75,0,0,1-2.9,5.23,3.55,3.55,0,0,0,2.92.54Z" style="fill:#ba4d3c"></path><path d="M312.26,181.84s-2,4.68,3.13,5.27,15.44-5.27,15.44-5.27l2.2.5s-.06,8.46-11.33,11.72c0,0-3.25-4.21-6.5-4.29s-7.54,3.41-7.54,3.41-2.08-5.54,3.4-11.26Z" style="fill:#407BFF"></path><g style="opacity:0.30000000000000004"><path d="M312.26,181.84s-2,4.68,3.13,5.27,15.44-5.27,15.44-5.27l2.2.5s-.06,8.46-11.33,11.72c0,0-3.25-4.21-6.5-4.29s-7.54,3.41-7.54,3.41-2.08-5.54,3.4-11.26Z" style="fill:#fff"></path></g><path d="M312.26,181.84s-7.14,3-9.76,22.3-3.57,55.46-2.86,72.37,1.67,27.85-3.57,27.14c0,0-.47-27.14,0-57.38S293.45,182.39,312.26,181.84Z" style="fill:#407BFF"></path><path d="M312.26,181.84s-7.14,3-9.76,22.3-3.57,55.46-2.86,72.37,1.67,27.85-3.57,27.14c0,0-.47-27.14,0-57.38S293.45,182.39,312.26,181.84Z" style="fill:#fff;opacity:0.8"></path><path d="M332.63,181.84s-8.57,4.76-9.52,34.91S322.47,304,332.63,305s21.27-4.76,21.27-4.76-.73-10.94-2.62-24.8c-1.59-11.57-4.27-25.18-5.32-36.15-1.21-12.69,5.71-47.61,1.27-51.11S332.63,181.84,332.63,181.84Z" style="fill:#407BFF"></path><path d="M332.63,181.84s-8.57,4.76-9.52,34.91S322.47,304,332.63,305s21.27-4.76,21.27-4.76-.73-10.94-2.62-24.8c-1.59-11.57-4.27-25.18-5.32-36.15-1.21-12.69,5.71-47.61,1.27-51.11S332.63,181.84,332.63,181.84Z" style="fill:#fff;opacity:0.8"></path><path d="M348.37,203.75l-4.85-9.69-2.85-3.3-3.58,3.3s3.19,18.88,9.2,32.23C346.87,219.07,347.85,210.78,348.37,203.75Z" style="opacity:0.1"></path><path d="M314.11,169.18a5.58,5.58,0,0,1-.91.07.19.19,0,0,1-.19-.17h0a.18.18,0,0,1,.19-.17,5,5,0,0,0,4-1.92.18.18,0,0,1,.25-.06.19.19,0,0,1,.05.26A5,5,0,0,1,314.11,169.18Z" style="fill:#263238"></path><path d="M341.29,228.17l-10.1,2.28-4.47-2.66a2.59,2.59,0,0,0-1.7-.34l-3.64.53a2.6,2.6,0,0,0-1.9,1.34l-.81,1.48a2.62,2.62,0,0,0-.28,1.67l.29,1.7a2.6,2.6,0,0,0,1.93,2.09l6.15,1.52a2.56,2.56,0,0,0,1.45-.06l4.26-1.44,12.23-1.42Z" style="fill:#ce7a63"></path><path d="M343.93,236.49c3.21-.33,9.24-1.57,13.58-6.06,6.19-6.4-2.4-30.81-5.76-36.92-3.76-6.82-9.57-7.81-9.57-7.81-7.5-2.57-6.43,4.4-4.3,12.93s10.25,20.92,10.46,23.26c.14,1.51-4.48,3.28-7.81,4.35C339,226.74,342.73,236.62,343.93,236.49Z" style="fill:#407BFF"></path><path d="M343.93,236.49c3.21-.33,9.24-1.57,13.58-6.06,6.19-6.4-2.4-30.81-5.76-36.92-3.76-6.82-9.57-7.81-9.57-7.81-7.5-2.57-6.43,4.4-4.3,12.93s10.25,20.92,10.46,23.26c.14,1.51-4.48,3.28-7.81,4.35C339,226.74,342.73,236.62,343.93,236.49Z" style="fill:#fff;opacity:0.8"></path><path d="M329,265.28l16.75-2.47s3.51,4.31-2.11,4.94C335.51,268.66,330.17,269.68,329,265.28Z" style="fill:#407BFF"></path><path d="M329,265.28l16.75-2.47s3.51,4.31-2.11,4.94C335.51,268.66,330.17,269.68,329,265.28Z" style="fill:#fff;opacity:0.6000000000000001"></path><path d="M297.45,265h-2L294,269.34S297.35,271.45,297.45,265Z" style="fill:#407BFF"></path><path d="M297.45,265h-2L294,269.34S297.35,271.45,297.45,265Z" style="fill:#fff;opacity:0.6000000000000001"></path><rect x="260.3" y="192.92" width="1.41" height="4.85" transform="translate(-60.43 140.94) rotate(-27.21)" style="fill:#263238"></rect><rect x="260.3" y="192.92" width="1.41" height="4.85" transform="translate(-60.43 140.94) rotate(-27.21)" style="fill:#fff;opacity:0.30000000000000004"></rect><rect x="258.29" y="192.36" width="3.21" height="1.65" rx="0.57" transform="translate(-59.57 140.18) rotate(-27.2)" style="fill:#263238"></rect><rect x="258.29" y="192.36" width="3.21" height="1.65" rx="0.57" transform="translate(-59.57 140.18) rotate(-27.2)" style="fill:#fff;opacity:0.5"></rect><path d="M265.26,194.93l-6.3,3.24a1.93,1.93,0,0,0-.83,2.59l1.43,2.78.88-.45c-1.12-2.18-.56-3.29.73-4.17,2.2,4.41,9.16,18.36,11.17,21.68.56.91,1.92,2.58,2.47,3.49.76,1.24,2.67,5.18,2.67,5.18a.85.85,0,0,0,1.15.37.86.86,0,0,0,.37-1.16s-2.09-3.84-2.66-5.18c-.42-1-1-3.05-1.4-4-1.53-3.58-8.86-17.44-11.15-21.75l.45-.22,1.77-.92a.54.54,0,0,0,.24-.75l-.23-.46A.56.56,0,0,0,265.26,194.93Z" style="fill:#263238"></path><path d="M265.26,194.93l-6.3,3.24a1.93,1.93,0,0,0-.83,2.59l1.43,2.78.88-.45c-1.12-2.18-.56-3.29.73-4.17,2.2,4.41,9.16,18.36,11.17,21.68.56.91,1.92,2.58,2.47,3.49.76,1.24,2.67,5.18,2.67,5.18a.85.85,0,0,0,1.15.37.86.86,0,0,0,.37-1.16s-2.09-3.84-2.66-5.18c-.42-1-1-3.05-1.4-4-1.53-3.58-8.86-17.44-11.15-21.75l.45-.22,1.77-.92a.54.54,0,0,0,.24-.75l-.23-.46A.56.56,0,0,0,265.26,194.93Z" style="fill:#fff;opacity:0.7000000000000001"></path><path d="M264.62,199.09l-.83-1.57.45-.22,1.77-.92a.54.54,0,0,0,.24-.75l-.23-.46a.56.56,0,0,0-.76-.24l-2.91,1.49,1.56,3Z" style="fill:#407BFF"></path><path d="M260.43,192l-1.83.94a.58.58,0,0,0-.25.77l.22.43,2.85-1.47-.22-.42A.58.58,0,0,0,260.43,192Z" style="fill:#407BFF"></path><polygon points="325.27 226.43 315.05 228.6 312.63 231.26 312.77 231.91 323 229.73 325.41 227.08 325.27 226.43" style="fill:#407BFF"></polygon><polygon points="322.86 229.08 312.63 231.26 315.05 228.6 325.27 226.43 322.86 229.08" style="fill:#fff;opacity:0.30000000000000004"></polygon><path d="M319.8,227.91c-.55.06-1.95.33-2.05.79s1,.37,1.2.7S321.89,227.66,319.8,227.91Z" style="fill:#407BFF"></path><path d="M319.8,227.91c-.55.06-1.95.33-2.05.79s1,.37,1.2.7S321.89,227.66,319.8,227.91Z" style="opacity:0.30000000000000004"></path><path d="M326.29,163.45a9.24,9.24,0,0,1-2.12-8.62l-3.08-4.7s-10.63,4.76-5.93,0c0,0-9,4.1-5.46.81,0,0-15.51,1.92-2-3.19,0,0-11.2-2.91,3.48-2.65,0,0-8.21-6,4.65-2,0,0-4-6.15,3.6-1.35,0,0-.07-5.11,4.33.71,0,0,3.3-5.48,5.5,3.74,0,0,8.33,2,3.79,4.13,0,0,7.29,4.53,2.16,4.89,0,0,4.68,6.17-.34,4.11,0,0,2.89,7-1.07,3.62,0,0-5.89,10.34-7.33,9.87S326.29,163.45,326.29,163.45Z" style="fill:#263238"></path><path d="M332,164.36a7.16,7.16,0,0,1-4.44,3.17c-2.44.54-3.54-1.67-2.75-3.91.71-2,2.84-4.73,5.24-4.27S333.23,162.38,332,164.36Z" style="fill:#ce7a63"></path><path d="M309.7,160.68c0,.61-.32,1.11-.72,1.1s-.72-.49-.72-1.09.31-1.11.71-1.11S309.7,160.07,309.7,160.68Z" style="fill:#263238"></path><path d="M309.14,159.59l-2.12-.13S308.37,160.8,309.14,159.59Z" style="fill:#263238"></path><path d="M316.6,160.65c0,.62-.32,1.11-.72,1.11s-.72-.49-.72-1.1.31-1.11.72-1.11S316.6,160.05,316.6,160.65Z" style="fill:#263238"></path><path d="M316,159.59l-2.12-.13S315.21,160.8,316,159.59Z" style="fill:#263238"></path><path d="M329.24,167.37a1.1,1.1,0,1,1-1.1-1.11A1.1,1.1,0,0,1,329.24,167.37Z" style="fill:#407BFF"></path></g><g id="freepik--Table--inject-195"><polygon points="420.28 414.12 417.48 414.12 413.88 294.12 417.58 294.12 420.28 414.12" style="fill:#263238"></polygon><polygon points="420.28 414.12 417.48 414.12 413.88 294.12 417.58 294.12 420.28 414.12" style="fill:#fff;opacity:0.6000000000000001"></polygon><polygon points="375.18 294.12 375.18 414.12 378.14 414.12 381.63 299.6 417.34 299.6 419.95 414.12 422.88 414.12 422.88 294.12 375.18 294.12" style="fill:#263238"></polygon><polygon points="375.18 294.12 375.18 414.12 378.14 414.12 381.63 299.6 417.34 299.6 419.95 414.12 422.88 414.12 422.88 294.12 375.18 294.12" style="fill:#fff;opacity:0.4"></polygon><polygon points="375.18 414.12 372.39 414.12 371.49 294.12 375.18 294.12 375.18 414.12" style="fill:#263238"></polygon><polygon points="375.18 414.12 372.39 414.12 371.49 294.12 375.18 294.12 375.18 414.12" style="fill:#fff;opacity:0.6000000000000001"></polygon><polygon points="241.48 414.12 238.68 414.12 235.08 294.12 238.78 294.12 241.48 414.12" style="fill:#263238"></polygon><polygon points="241.48 414.12 238.68 414.12 235.08 294.12 238.78 294.12 241.48 414.12" style="fill:#fff;opacity:0.6000000000000001"></polygon><polygon points="196.38 294.12 196.38 414.12 199.34 414.12 202.83 299.6 238.54 299.6 241.15 414.12 244.08 414.12 244.08 294.12 196.38 294.12" style="fill:#263238"></polygon><polygon points="196.38 294.12 196.38 414.12 199.34 414.12 202.83 299.6 238.54 299.6 241.15 414.12 244.08 414.12 244.08 294.12 196.38 294.12" style="fill:#fff;opacity:0.4"></polygon><polygon points="196.38 414.12 193.59 414.12 192.69 294.12 196.38 294.12 196.38 414.12" style="fill:#263238"></polygon><polygon points="196.38 414.12 193.59 414.12 192.69 294.12 196.38 294.12 196.38 414.12" style="fill:#fff;opacity:0.6000000000000001"></polygon><rect x="187.79" y="287.22" width="185.08" height="6.9" style="fill:#407BFF"></rect><rect x="187.79" y="287.22" width="185.08" height="6.9" style="fill:#fff;opacity:0.5"></rect><rect x="368.58" y="287.22" width="59.2" height="6.9" style="fill:#407BFF"></rect><rect x="368.58" y="287.22" width="59.2" height="6.9" style="fill:#fff;opacity:0.7000000000000001"></rect></g><g id="freepik--Tubes--inject-195"><path d="M363.37,248.71h-3.22a1.76,1.76,0,0,0-1.76,1.76v0a1.77,1.77,0,0,0,.95,1.56v28.4a2,2,0,0,0,2,2h.8a2,2,0,0,0,2-2v-28.4a1.76,1.76,0,0,0,1-1.56v0A1.76,1.76,0,0,0,363.37,248.71Z" style="fill:#407BFF"></path><path d="M363.37,248.71h-3.22a1.76,1.76,0,0,0-1.76,1.76v0a1.77,1.77,0,0,0,.95,1.56v28.4a2,2,0,0,0,2,2h.8a2,2,0,0,0,2-2v-28.4a1.76,1.76,0,0,0,1-1.56v0A1.76,1.76,0,0,0,363.37,248.71Z" style="fill:#fff;opacity:0.6000000000000001"></path><path d="M359.06,249.1a5.75,5.75,0,0,0,2.7.45,5.69,5.69,0,0,0,2.7-.45,1.73,1.73,0,0,0-1.09-.39h-3.22A1.75,1.75,0,0,0,359.06,249.1Z" style="fill:#407BFF"></path><path d="M361.76,271.82c-.83,0-1.51-.22-1.52-.48v9.12a1.12,1.12,0,0,0,1.12,1.12h.8a1.12,1.12,0,0,0,1.12-1.12v-9.12C363.27,271.6,362.6,271.82,361.76,271.82Z" style="fill:#407BFF"></path><path d="M363.29,271.33c0,.27-.68.49-1.53.49s-1.53-.22-1.53-.49.69-.49,1.53-.49S363.29,271.06,363.29,271.33Z" style="fill:#407BFF"></path><path d="M363.29,271.33c0,.27-.68.49-1.53.49s-1.53-.22-1.53-.49.69-.49,1.53-.49S363.29,271.06,363.29,271.33Z" style="opacity:0.30000000000000004"></path><g style="opacity:0.8"><path d="M360.22,252.26v28.2a.45.45,0,0,0,.9,0v-28.2a.45.45,0,0,0-.9,0Z" style="fill:#fff"></path></g><path d="M375.84,248.71h-3.23a1.76,1.76,0,0,0-1.76,1.76v0a1.77,1.77,0,0,0,.95,1.56v28.4a2,2,0,0,0,2,2h.8a2,2,0,0,0,2-2v-28.4a1.77,1.77,0,0,0,1-1.56v0A1.76,1.76,0,0,0,375.84,248.71Z" style="fill:#407BFF"></path><path d="M375.84,248.71h-3.23a1.76,1.76,0,0,0-1.76,1.76v0a1.77,1.77,0,0,0,.95,1.56v28.4a2,2,0,0,0,2,2h.8a2,2,0,0,0,2-2v-28.4a1.77,1.77,0,0,0,1-1.56v0A1.76,1.76,0,0,0,375.84,248.71Z" style="fill:#fff;opacity:0.6000000000000001"></path><path d="M371.52,249.1a5.75,5.75,0,0,0,2.7.45,5.69,5.69,0,0,0,2.7-.45,1.72,1.72,0,0,0-1.08-.39h-3.23A1.75,1.75,0,0,0,371.52,249.1Z" style="fill:#407BFF"></path><path d="M374.22,265.39c-.83,0-1.5-.21-1.52-.48v15.55a1.12,1.12,0,0,0,1.12,1.12h.8a1.13,1.13,0,0,0,1.13-1.12V264.91C375.73,265.18,375.06,265.39,374.22,265.39Z" style="fill:#407BFF"></path><path d="M375.75,264.9c0,.27-.68.49-1.53.49s-1.53-.22-1.53-.49.69-.49,1.53-.49S375.75,264.63,375.75,264.9Z" style="fill:#407BFF"></path><path d="M375.75,264.9c0,.27-.68.49-1.53.49s-1.53-.22-1.53-.49.69-.49,1.53-.49S375.75,264.63,375.75,264.9Z" style="opacity:0.30000000000000004"></path><g style="opacity:0.8"><path d="M372.68,252.26v28.2a.45.45,0,0,0,.9,0v-28.2a.45.45,0,0,0-.9,0Z" style="fill:#fff"></path></g><path d="M388.3,248.71h-3.23a1.76,1.76,0,0,0-1.76,1.76v0a1.77,1.77,0,0,0,.95,1.56v28.4a2,2,0,0,0,2,2h.79a2,2,0,0,0,2-2v-28.4a1.77,1.77,0,0,0,.95-1.56v0A1.76,1.76,0,0,0,388.3,248.71Z" style="fill:#407BFF"></path><path d="M388.3,248.71h-3.23a1.76,1.76,0,0,0-1.76,1.76v0a1.77,1.77,0,0,0,.95,1.56v28.4a2,2,0,0,0,2,2h.79a2,2,0,0,0,2-2v-28.4a1.77,1.77,0,0,0,.95-1.56v0A1.76,1.76,0,0,0,388.3,248.71Z" style="fill:#fff;opacity:0.6000000000000001"></path><path d="M384,249.1a8.3,8.3,0,0,0,5.39,0,1.72,1.72,0,0,0-1.08-.39h-3.23A1.72,1.72,0,0,0,384,249.1Z" style="fill:#407BFF"></path><path d="M386.68,259.88c-.83,0-1.5-.22-1.52-.48v21.06a1.13,1.13,0,0,0,1.13,1.12h.79a1.13,1.13,0,0,0,1.13-1.12V259.4C388.19,259.66,387.52,259.88,386.68,259.88Z" style="fill:#407BFF"></path><path d="M388.21,259.39c0,.27-.68.49-1.53.49s-1.52-.22-1.52-.49.68-.49,1.52-.49S388.21,259.12,388.21,259.39Z" style="fill:#407BFF"></path><path d="M388.21,259.39c0,.27-.68.49-1.53.49s-1.52-.22-1.52-.49.68-.49,1.52-.49S388.21,259.12,388.21,259.39Z" style="opacity:0.30000000000000004"></path><g style="opacity:0.8"><path d="M385.14,252.26v28.2a.45.45,0,0,0,.9,0v-28.2a.45.45,0,0,0-.9,0Z" style="fill:#fff"></path></g><path d="M400.76,248.71h-3.23a1.76,1.76,0,0,0-1.76,1.76v0a1.77,1.77,0,0,0,1,1.56v28.4a2,2,0,0,0,2,2h.79a2,2,0,0,0,2-2v-28.4a1.77,1.77,0,0,0,.95-1.56v0A1.76,1.76,0,0,0,400.76,248.71Z" style="fill:#407BFF"></path><path d="M400.76,248.71h-3.23a1.76,1.76,0,0,0-1.76,1.76v0a1.77,1.77,0,0,0,1,1.56v28.4a2,2,0,0,0,2,2h.79a2,2,0,0,0,2-2v-28.4a1.77,1.77,0,0,0,.95-1.56v0A1.76,1.76,0,0,0,400.76,248.71Z" style="fill:#fff;opacity:0.6000000000000001"></path><path d="M396.45,249.1a5.69,5.69,0,0,0,2.7.45,5.75,5.75,0,0,0,2.7-.45,1.75,1.75,0,0,0-1.09-.39h-3.23A1.72,1.72,0,0,0,396.45,249.1Z" style="fill:#407BFF"></path><path d="M399.15,265.39c-.84,0-1.51-.21-1.53-.48v15.55a1.13,1.13,0,0,0,1.13,1.12h.79a1.13,1.13,0,0,0,1.13-1.12V264.91C400.65,265.18,400,265.39,399.15,265.39Z" style="fill:#407BFF"></path><path d="M400.68,264.9c0,.27-.69.49-1.53.49s-1.53-.22-1.53-.49.68-.49,1.53-.49S400.68,264.63,400.68,264.9Z" style="fill:#407BFF"></path><path d="M400.68,264.9c0,.27-.69.49-1.53.49s-1.53-.22-1.53-.49.68-.49,1.53-.49S400.68,264.63,400.68,264.9Z" style="opacity:0.30000000000000004"></path><g style="opacity:0.8"><path d="M397.6,252.26v28.2a.45.45,0,0,0,.9,0v-28.2a.45.45,0,0,0-.9,0Z" style="fill:#fff"></path></g><path d="M408.78,256.29a1,1,0,0,0,1-1v-1a1,1,0,0,0-1-1h-56a1,1,0,0,0-1,1v1a1,1,0,0,0,1,1h1.57v28h-1.57a1,1,0,0,0-1,1v1a1,1,0,0,0,1,1h56a1,1,0,0,0,1-1v-1a1,1,0,0,0-1-1h-1.57v-28Zm-4.12,28H356.87v-28h47.79Z" style="fill:#263238"></path><path d="M408.78,256.29a1,1,0,0,0,1-1v-1a1,1,0,0,0-1-1h-56a1,1,0,0,0-1,1v1a1,1,0,0,0,1,1h1.57v28h-1.57a1,1,0,0,0-1,1v1a1,1,0,0,0,1,1h56a1,1,0,0,0,1-1v-1a1,1,0,0,0-1-1h-1.57v-28Zm-4.12,28H356.87v-28h47.79Z" style="fill:#fff;opacity:0.5"></path></g><g id="freepik--Microscope--inject-195"><path d="M260.18,275h4.52a2.74,2.74,0,0,1,2.74,2.74v6.14a0,0,0,0,1,0,0h-10a0,0,0,0,1,0,0v-6.14A2.74,2.74,0,0,1,260.18,275Z" style="fill:#263238"></path><path d="M260.18,275h4.52a2.74,2.74,0,0,1,2.74,2.74v6.14a0,0,0,0,1,0,0h-10a0,0,0,0,1,0,0v-6.14A2.74,2.74,0,0,1,260.18,275Z" style="fill:#fff;opacity:0.30000000000000004"></path><path d="M250.39,215.64h5.46a0,0,0,0,1,0,0v17.89A1.87,1.87,0,0,1,254,235.4h-1.72a1.87,1.87,0,0,1-1.87-1.87V215.64a0,0,0,0,1,0,0Z" transform="translate(580.77 312.59) rotate(153.18)" style="fill:#263238"></path><path d="M250.39,215.64h5.46a0,0,0,0,1,0,0v17.89A1.87,1.87,0,0,1,254,235.4h-1.72a1.87,1.87,0,0,1-1.87-1.87V215.64a0,0,0,0,1,0,0Z" transform="translate(580.77 312.59) rotate(153.18)" style="fill:#fff;opacity:0.30000000000000004"></path><rect x="250.59" y="237.36" width="5.08" height="49.47" transform="translate(506.25 524.19) rotate(180)" style="fill:#407BFF"></rect><rect x="264.22" y="237.36" width="5.08" height="5.58" transform="translate(533.52 480.3) rotate(180)" style="fill:#407BFF"></rect><rect x="250.59" y="237.36" width="5.08" height="49.47" transform="translate(506.25 524.19) rotate(180)" style="opacity:0.2"></rect><rect x="264.22" y="237.36" width="5.08" height="5.58" transform="translate(533.52 480.3) rotate(180)" style="opacity:0.2"></rect><rect x="262.44" y="229.19" width="4.06" height="8.17" transform="translate(528.94 466.55) rotate(180)" style="fill:#407BFF"></rect><rect x="262.44" y="229.19" width="4.06" height="8.17" transform="translate(528.94 466.55) rotate(180)" style="opacity:0.1"></rect><path d="M244.25,237.36h18.19v-8.17l-16.14,3.46a2.6,2.6,0,0,0-2.05,2.54Z" style="fill:#407BFF"></path><path d="M244.25,237.36h18.19v-8.17l-16.14,3.46a2.6,2.6,0,0,0-2.05,2.54Z" style="fill:#fff;opacity:0.2"></path><path d="M263.41,246.19l5.78-2.71a.28.28,0,0,0-.11-.54H255.81a.28.28,0,0,0-.12.54l5.78,2.71A2.27,2.27,0,0,0,263.41,246.19Z" style="fill:#263238"></path><rect x="258.6" y="246.39" width="7.67" height="5.19" rx="2.14" transform="translate(13.46 511.42) rotate(-90)" style="fill:#263238"></rect><rect x="258.6" y="246.39" width="7.67" height="5.19" rx="2.14" transform="translate(13.46 511.42) rotate(-90)" style="fill:#fff;opacity:0.6000000000000001"></rect><rect x="264.05" y="245.29" width="7.67" height="5.19" rx="2.14" transform="translate(141.39 590.24) rotate(-112.5)" style="fill:#263238"></rect><rect x="253.15" y="245.29" width="7.67" height="5.19" rx="2.14" transform="translate(-70.36 390.45) rotate(-67.5)" style="fill:#263238"></rect><g style="opacity:0.30000000000000004"><rect x="264.05" y="245.29" width="7.67" height="5.19" rx="2.14" transform="translate(141.39 590.24) rotate(-112.5)" style="fill:#fff"></rect><rect x="253.15" y="245.29" width="7.67" height="5.19" rx="2.14" transform="translate(-70.36 390.45) rotate(-67.5)" style="fill:#fff"></rect></g><path d="M250.59,286.83H233.41a2.34,2.34,0,0,1-2.29-2.85l10-44.72a2.44,2.44,0,0,1,2.38-1.9h20.75v5.58H250.59Z" style="fill:#407BFF"></path><path d="M250.59,286.83H233.41a2.34,2.34,0,0,1-2.29-2.85l10-44.72a2.44,2.44,0,0,1,2.38-1.9h20.75v5.58H250.59Z" style="fill:#fff;opacity:0.30000000000000004"></path><rect x="259.68" y="262.88" width="14.6" height="4.01" transform="translate(533.97 529.77) rotate(180)" style="fill:#263238"></rect><rect x="239.08" y="262.88" width="20.6" height="4.01" transform="translate(498.77 529.77) rotate(180)" style="fill:#263238"></rect><rect x="259.68" y="262.88" width="14.6" height="4.01" transform="translate(533.97 529.77) rotate(180)" style="fill:#fff;opacity:0.7000000000000001"></rect><rect x="239.08" y="262.88" width="20.6" height="4.01" transform="translate(498.77 529.77) rotate(180)" style="fill:#fff;opacity:0.30000000000000004"></rect><rect x="259.68" y="283.54" width="14.6" height="4.01" transform="translate(533.97 571.08) rotate(180)" style="fill:#407BFF"></rect><rect x="230.06" y="283.54" width="29.62" height="4.01" transform="translate(489.75 571.08) rotate(180)" style="fill:#407BFF"></rect><rect x="259.68" y="283.54" width="14.6" height="4.01" transform="translate(533.97 571.08) rotate(180)" style="opacity:0.1"></rect><rect x="230.06" y="283.54" width="29.62" height="4.01" transform="translate(489.75 571.08) rotate(180)" style="fill:#fff;opacity:0.2"></rect><path d="M237.77,268.48h-1.94a4.77,4.77,0,1,0,0,9.53h1.94a4.77,4.77,0,1,0,0-9.53Z" style="fill:#263238"></path><path d="M237.77,268.48h-1.94a4.77,4.77,0,1,0,0,9.53h1.94a4.77,4.77,0,1,0,0-9.53Z" style="fill:#fff;opacity:0.5"></path><circle cx="235.83" cy="273.25" r="4.76" style="fill:#fff;opacity:0.30000000000000004"></circle></g><g id="freepik--Speciment--inject-195"><path d="M221.48,262.11V257H208.81v5.07c-3.28,1.14-3.16,4.24-3.16,7.9v11q0,.44,0,.87c.26,3,.35,5.24,3.34,5.24h12.25c3,0,3.08-2.26,3.34-5.24q0-.43,0-.87V270C224.64,266.35,224.76,263.25,221.48,262.11Z" style="fill:#263238"></path><path d="M221.48,262.11V257H208.81v5.07c-3.28,1.14-3.16,4.24-3.16,7.9v11q0,.44,0,.87c.26,3,.35,5.24,3.34,5.24h12.25c3,0,3.08-2.26,3.34-5.24q0-.43,0-.87V270C224.64,266.35,224.76,263.25,221.48,262.11Z" style="fill:#fff;opacity:0.7000000000000001"></path><rect x="207.73" y="252.82" width="14.84" height="6.06" rx="0.82" style="fill:#407BFF"></rect><g style="opacity:0.4"><path d="M210.19,262.63h5a.52.52,0,0,0,0-1h-5a.52.52,0,0,0,0,1Z" style="fill:#fff"></path></g><g style="opacity:0.4"><path d="M217.19,262.63h.88a.52.52,0,0,0,0-1h-.88a.52.52,0,0,0,0,1Z" style="fill:#fff"></path></g><path d="M219.75,272.21c.55,0,1.36-2.66,2.11-3.29.47-.41,2.39-.69,2.29-1s-1.19.23-1.48.13,1.42-2,1.27-2.27-1.61,1.85-1.87,1.85.34-2.16,0-2.27-.45,2.29-.77,2.32-.81-1.05-1.08-.87.52,1.08.58,1.47c.12.74-.73,2.77-1.16,2.77-.26,0-1-.68-1.55-1.17a3.8,3.8,0,0,1-.13-1.23c0-.28.22-.5.22-.77,0-.63-.66-.94-1.1-1.57-.61-.88-1-1.58-1.9-1.58s-1.29.7-1.91,1.58c-.44.63-1.09.94-1.09,1.57a4.72,4.72,0,0,0,.22.77,3.42,3.42,0,0,1-.13,1.17c-.52.5-1.33,1.22-1.6,1.22-.43,0-1.29-2-1.17-2.78.07-.39.85-1.29.58-1.48s-.76.9-1.08.88-.42-2.44-.77-2.33.27,2.27,0,2.27-1.72-2.14-1.87-1.85,1.56,2.17,1.26,2.28-1.37-.45-1.48-.14,1.83.6,2.3,1c.75.63,1.57,3.31,2.12,3.31.35,0,1.12-.64,1.65-1.12a7.64,7.64,0,0,0,.37,2c-.84.63-4.45,3.42-4.25,4.39s4,1.61,3.85,2.13a3.73,3.73,0,0,1-1.17,1.51c-.76.46-3.39,1-3.29,1.33s1.62-.2,1.84,0-1.87,2-1.58,2.32,2-1.68,2.26-1.48-.61,2.19-.23,2.32,1.16-3.1,1.39-3.07,0,1.46.32,1.49.17-1.69.33-2.23c.21-.71,1.19-1.9,1.13-2.74s-3-1.23-3.07-1.68,1,.14,4.46-1.8a1.83,1.83,0,0,0,.61.11,1.76,1.76,0,0,0,.67-.15c3.55,2,4.59,1.41,4.53,1.84s-3,.84-3.07,1.68.92,2,1.13,2.74c.16.54,0,2.26.33,2.23s.09-1.45.32-1.49,1,3.2,1.39,3.07-.52-2.13-.23-2.32,2,1.8,2.26,1.48-1.81-2.13-1.58-2.32,1.74.35,1.84,0-2.53-.87-3.29-1.33a3.63,3.63,0,0,1-1.16-1.51c-.2-.52,3.61-1,3.84-2.13s-3.8-4.06-4.36-4.47a8.26,8.26,0,0,0,.35-1.88C218.67,271.6,219.41,272.21,219.75,272.21Z" style="fill:#407BFF"></path><path d="M215.27,273.45a5.55,5.55,0,0,0,0-7.07,5.55,5.55,0,0,0,0,7.07Z" style="opacity:0.2"></path><g style="opacity:0.6000000000000001"><path d="M214.17,270.17a.78.78,0,0,0,.67,1c.27.06.56.05.83.1s.39,0,.17.13-.68,0-1,.05-.39.15-.36.38.28.3.48.34a3.85,3.85,0,0,1,.49.08c.27.09.07.12-.12.13s-.51,0-.55.23.26.26.29.08c0,0,1.37-.06.73-.61-.2-.17-.56-.14-.81-.2s-.15-.14.09-.17h.55c.17,0,.47,0,.57-.16a.33.33,0,0,0-.1-.42c-.42-.34-1.88,0-1.66-.84,0-.18-.24-.26-.28-.07Z" style="fill:#fff"></path></g><path d="M216.26,269.79c0,.36-.47.41-1,.41s-1.05-.05-1.05-.41.47-.63,1.05-.63S216.26,269.44,216.26,269.79Z" style="fill:#fff;opacity:0.6000000000000001"></path><path d="M215.27,273.45a5.55,5.55,0,0,1,0-7.07,4.62,4.62,0,0,0-1.88,3.53A4.11,4.11,0,0,0,215.27,273.45Z" style="fill:#fff;opacity:0.4"></path><path d="M215.27,273.45a5.55,5.55,0,0,0,0-7.07,4.62,4.62,0,0,1,1.88,3.53A4.11,4.11,0,0,1,215.27,273.45Z" style="fill:#fff;opacity:0.4"></path></g><g id="freepik--Refrigerator--inject-195"><rect x="64.71" y="184.75" width="118.86" height="228.64" style="fill:#407BFF"></rect><rect x="64.71" y="184.75" width="118.86" height="228.64" style="fill:#fff;opacity:0.7000000000000001"></rect><rect x="64.71" y="199.16" width="118.86" height="1.83" style="opacity:0.30000000000000004"></rect><rect x="64.71" y="385.79" width="118.86" height="1.83" style="opacity:0.30000000000000004"></rect><path d="M107.79,210.58h-3.08a1.69,1.69,0,0,0-1.68,1.69v0a1.68,1.68,0,0,0,.91,1.49V240.9a1.93,1.93,0,0,0,1.93,1.93h.77a1.93,1.93,0,0,0,1.93-1.93V213.78a1.68,1.68,0,0,0,.91-1.49v0A1.69,1.69,0,0,0,107.79,210.58Z" style="fill:#407BFF"></path><path d="M107.79,210.58h-3.08a1.69,1.69,0,0,0-1.68,1.69v0a1.68,1.68,0,0,0,.91,1.49V240.9a1.93,1.93,0,0,0,1.93,1.93h.77a1.93,1.93,0,0,0,1.93-1.93V213.78a1.68,1.68,0,0,0,.91-1.49v0A1.69,1.69,0,0,0,107.79,210.58Z" style="fill:#fff;opacity:0.6000000000000001"></path><path d="M103.68,211a7.93,7.93,0,0,0,5.15,0,1.63,1.63,0,0,0-1-.37h-3.08A1.62,1.62,0,0,0,103.68,211Z" style="fill:#407BFF"></path><path d="M106.25,232.65c-.79,0-1.44-.2-1.45-.46v8.71a1.07,1.07,0,0,0,1.07,1.07h.76a1.07,1.07,0,0,0,1.08-1.07v-8.71C107.69,232.45,107.05,232.65,106.25,232.65Z" style="fill:#407BFF"></path><path d="M107.71,232.18c0,.26-.65.47-1.46.47s-1.46-.21-1.46-.47.66-.46,1.46-.46S107.71,231.93,107.71,232.18Z" style="fill:#407BFF"></path><path d="M107.71,232.18c0,.26-.65.47-1.46.47s-1.46-.21-1.46-.47.66-.46,1.46-.46S107.71,231.93,107.71,232.18Z" style="opacity:0.30000000000000004"></path><g style="opacity:0.8"><path d="M104.78,214V240.9a.43.43,0,0,0,.86,0V214a.43.43,0,0,0-.86,0Z" style="fill:#fff"></path></g><path d="M119.7,210.58h-3.08a1.69,1.69,0,0,0-1.69,1.69v0a1.68,1.68,0,0,0,.91,1.49V240.9a1.93,1.93,0,0,0,1.93,1.93h.77a1.93,1.93,0,0,0,1.93-1.93V213.78a1.68,1.68,0,0,0,.91-1.49v0A1.69,1.69,0,0,0,119.7,210.58Z" style="fill:#407BFF"></path><path d="M119.7,210.58h-3.08a1.69,1.69,0,0,0-1.69,1.69v0a1.68,1.68,0,0,0,.91,1.49V240.9a1.93,1.93,0,0,0,1.93,1.93h.77a1.93,1.93,0,0,0,1.93-1.93V213.78a1.68,1.68,0,0,0,.91-1.49v0A1.69,1.69,0,0,0,119.7,210.58Z" style="fill:#fff;opacity:0.6000000000000001"></path><path d="M115.58,211a7.93,7.93,0,0,0,5.15,0,1.62,1.62,0,0,0-1-.37h-3.08A1.63,1.63,0,0,0,115.58,211Z" style="fill:#407BFF"></path><path d="M118.16,226.51c-.8,0-1.44-.2-1.46-.46V240.9a1.07,1.07,0,0,0,1.07,1.07h.77a1.07,1.07,0,0,0,1.07-1.07V226.05C119.6,226.31,119,226.51,118.16,226.51Z" style="fill:#407BFF"></path><path d="M119.62,226.05c0,.25-.66.46-1.46.46s-1.46-.21-1.46-.46.65-.47,1.46-.47S119.62,225.79,119.62,226.05Z" style="fill:#407BFF"></path><path d="M119.62,226.05c0,.25-.66.46-1.46.46s-1.46-.21-1.46-.46.65-.47,1.46-.47S119.62,225.79,119.62,226.05Z" style="opacity:0.30000000000000004"></path><g style="opacity:0.8"><path d="M116.68,214V240.9a.43.43,0,0,0,.86,0V214a.43.43,0,0,0-.86,0Z" style="fill:#fff"></path></g><path d="M131.6,210.58h-3.08a1.69,1.69,0,0,0-1.69,1.69v0a1.7,1.7,0,0,0,.91,1.49V240.9a1.93,1.93,0,0,0,1.94,1.93h.76a1.92,1.92,0,0,0,1.93-1.93V213.78a1.68,1.68,0,0,0,.91-1.49v0A1.69,1.69,0,0,0,131.6,210.58Z" style="fill:#407BFF"></path><path d="M131.6,210.58h-3.08a1.69,1.69,0,0,0-1.69,1.69v0a1.7,1.7,0,0,0,.91,1.49V240.9a1.93,1.93,0,0,0,1.94,1.93h.76a1.92,1.92,0,0,0,1.93-1.93V213.78a1.68,1.68,0,0,0,.91-1.49v0A1.69,1.69,0,0,0,131.6,210.58Z" style="fill:#fff;opacity:0.6000000000000001"></path><path d="M127.48,211a7.93,7.93,0,0,0,5.15,0,1.62,1.62,0,0,0-1-.37h-3.08A1.65,1.65,0,0,0,127.48,211Z" style="fill:#407BFF"></path><path d="M130.06,221.25c-.8,0-1.44-.21-1.46-.46V240.9a1.07,1.07,0,0,0,1.08,1.07h.76a1.07,1.07,0,0,0,1.07-1.07V220.79C131.5,221,130.85,221.25,130.06,221.25Z" style="fill:#407BFF"></path><path d="M131.52,220.78c0,.26-.66.47-1.46.47s-1.46-.21-1.46-.47.65-.47,1.46-.47S131.52,220.52,131.52,220.78Z" style="fill:#407BFF"></path><path d="M131.52,220.78c0,.26-.66.47-1.46.47s-1.46-.21-1.46-.47.65-.47,1.46-.47S131.52,220.52,131.52,220.78Z" style="opacity:0.30000000000000004"></path><g style="opacity:0.8"><path d="M128.58,214V240.9a.43.43,0,0,0,.86,0V214a.43.43,0,0,0-.86,0Z" style="fill:#fff"></path></g><path d="M143.5,210.58h-3.08a1.69,1.69,0,0,0-1.68,1.69v0a1.69,1.69,0,0,0,.9,1.49V240.9a1.93,1.93,0,0,0,1.94,1.93h.76a1.92,1.92,0,0,0,1.93-1.93V213.78a1.68,1.68,0,0,0,.91-1.49v0A1.69,1.69,0,0,0,143.5,210.58Z" style="fill:#407BFF"></path><path d="M143.5,210.58h-3.08a1.69,1.69,0,0,0-1.68,1.69v0a1.69,1.69,0,0,0,.9,1.49V240.9a1.93,1.93,0,0,0,1.94,1.93h.76a1.92,1.92,0,0,0,1.93-1.93V213.78a1.68,1.68,0,0,0,.91-1.49v0A1.69,1.69,0,0,0,143.5,210.58Z" style="fill:#fff;opacity:0.6000000000000001"></path><path d="M139.38,211a8,8,0,0,0,5.16,0,1.67,1.67,0,0,0-1-.37h-3.08A1.65,1.65,0,0,0,139.38,211Z" style="fill:#407BFF"></path><path d="M142,226.51c-.8,0-1.44-.2-1.46-.46V240.9a1.08,1.08,0,0,0,1.08,1.07h.76a1.07,1.07,0,0,0,1.07-1.07V226.05C143.4,226.31,142.76,226.51,142,226.51Z" style="fill:#407BFF"></path><path d="M143.42,226.05c0,.25-.65.46-1.46.46s-1.46-.21-1.46-.46.65-.47,1.46-.47S143.42,225.79,143.42,226.05Z" style="fill:#407BFF"></path><path d="M143.42,226.05c0,.25-.65.46-1.46.46s-1.46-.21-1.46-.46.65-.47,1.46-.47S143.42,225.79,143.42,226.05Z" style="opacity:0.30000000000000004"></path><g style="opacity:0.8"><path d="M140.48,214V240.9a.43.43,0,0,0,.86,0V214a.43.43,0,0,0-.86,0Z" style="fill:#fff"></path></g><path d="M151.16,217.82a1,1,0,0,0,1-.95v-.93a.94.94,0,0,0-1-.94H97.64a1,1,0,0,0-1,.94v.93a1,1,0,0,0,1,.95h1.51v26.71H97.64a1,1,0,0,0-1,.95v.92a1,1,0,0,0,1,.95h53.52a.94.94,0,0,0,1-.95v-.92a1,1,0,0,0-1-.95h-1.5V217.82Zm-3.93,26.71H101.58V217.82h45.65Z" style="fill:#263238"></path><path d="M151.16,217.82a1,1,0,0,0,1-.95v-.93a.94.94,0,0,0-1-.94H97.64a1,1,0,0,0-1,.94v.93a1,1,0,0,0,1,.95h1.51v26.71H97.64a1,1,0,0,0-1,.95v.92a1,1,0,0,0,1,.95h53.52a.94.94,0,0,0,1-.95v-.92a1,1,0,0,0-1-.95h-1.5V217.82Zm-3.93,26.71H101.58V217.82h45.65Z" style="fill:#fff;opacity:0.4"></path><path d="M72.33,201v184.8H176V201ZM171.65,381.5h-95V205.29h95Z" style="fill:#407BFF"></path><path d="M72.33,201v184.8H176V201ZM171.65,381.5h-95V205.29h95Z" style="fill:#fff;opacity:0.30000000000000004"></path><rect x="76.62" y="295.54" width="95.03" height="1.83" style="fill:#407BFF"></rect><rect x="76.62" y="247.35" width="95.03" height="1.83" style="fill:#407BFF"></rect><rect x="76.62" y="343.73" width="95.03" height="1.83" style="fill:#407BFF"></rect><g style="opacity:0.2"><rect x="76.62" y="295.54" width="95.03" height="1.83" style="fill:#fff"></rect><rect x="76.62" y="247.35" width="95.03" height="1.83" style="fill:#fff"></rect><rect x="76.62" y="343.73" width="95.03" height="1.83" style="fill:#fff"></rect></g><rect x="83.33" y="391.92" width="18.38" height="1.83" style="opacity:0.4"></rect><rect x="83.33" y="395.58" width="18.38" height="1.83" style="opacity:0.4"></rect><rect x="83.33" y="399.24" width="18.38" height="1.83" style="opacity:0.4"></rect><rect x="83.33" y="402.89" width="18.38" height="1.83" style="opacity:0.4"></rect><rect x="83.33" y="406.55" width="18.38" height="1.83" style="opacity:0.4"></rect><rect x="114.95" y="391.92" width="18.38" height="1.83" style="opacity:0.4"></rect><rect x="114.95" y="395.58" width="18.38" height="1.83" style="opacity:0.4"></rect><rect x="114.95" y="399.24" width="18.38" height="1.83" style="opacity:0.4"></rect><rect x="114.95" y="402.89" width="18.38" height="1.83" style="opacity:0.4"></rect><rect x="114.95" y="406.55" width="18.38" height="1.83" style="opacity:0.4"></rect><rect x="146.56" y="391.92" width="18.38" height="1.83" style="opacity:0.4"></rect><rect x="146.56" y="395.58" width="18.38" height="1.83" style="opacity:0.4"></rect><rect x="146.56" y="399.24" width="18.38" height="1.83" style="opacity:0.4"></rect><rect x="146.56" y="402.89" width="18.38" height="1.83" style="opacity:0.4"></rect><rect x="146.56" y="406.55" width="18.38" height="1.83" style="opacity:0.4"></rect><rect x="69.04" y="189.05" width="17.67" height="4.14" rx="1.05" style="fill:#407BFF"></rect><path d="M106.27,292.48l-7.89-11.73V268.37H93.12v12.38l-7.9,11.73a2.2,2.2,0,0,0,1.83,3.42h17.4A2.19,2.19,0,0,0,106.27,292.48Z" style="fill:#263238"></path><path d="M106.27,292.48l-7.89-11.73V268.37H93.12v12.38l-7.9,11.73a2.2,2.2,0,0,0,1.83,3.42h17.4A2.19,2.19,0,0,0,106.27,292.48Z" style="fill:#fff;opacity:0.7000000000000001"></path><path d="M99,269.11h-6.4A1.08,1.08,0,0,1,91.47,268h0A1.08,1.08,0,0,1,92.55,267H99A1.08,1.08,0,0,1,100,268h0A1.08,1.08,0,0,1,99,269.11Z" style="fill:#263238"></path><path d="M99,269.11h-6.4A1.08,1.08,0,0,1,91.47,268h0A1.08,1.08,0,0,1,92.55,267H99A1.08,1.08,0,0,1,100,268h0A1.08,1.08,0,0,1,99,269.11Z" style="fill:#fff;opacity:0.5"></path><path d="M112.13,262.13a.5.5,0,0,0-.35.86l2.13,2.13V293.2a2.7,2.7,0,0,0,2.7,2.7h15.8a2.7,2.7,0,0,0,2.7-2.7V262.13Z" style="fill:#263238"></path><path d="M112.13,262.13a.5.5,0,0,0-.35.86l2.13,2.13V293.2a2.7,2.7,0,0,0,2.7,2.7h15.8a2.7,2.7,0,0,0,2.7-2.7V262.13Z" style="fill:#fff;opacity:0.7000000000000001"></path><path d="M128.51,263.94h3.75a.33.33,0,0,0,0-.65h-3.75a.33.33,0,0,0,0,.65Z" style="fill:#e6e6e6"></path><path d="M130,265.93h2.3a.33.33,0,0,0,0-.66H130a.33.33,0,0,0,0,.66Z" style="fill:#e6e6e6"></path><path d="M130,267.91h2.3a.33.33,0,0,0,0-.65H130a.33.33,0,0,0,0,.65Z" style="fill:#e6e6e6"></path><path d="M130,269.89h2.3a.33.33,0,0,0,0-.65H130a.33.33,0,0,0,0,.65Z" style="fill:#e6e6e6"></path><path d="M130,271.88h2.3a.33.33,0,0,0,0-.66H130a.33.33,0,0,0,0,.66Z" style="fill:#e6e6e6"></path><path d="M128.51,273.86h3.75a.33.33,0,0,0,0-.65h-3.75a.33.33,0,0,0,0,.65Z" style="fill:#e6e6e6"></path><path d="M130,275.84h2.3a.33.33,0,0,0,0-.65H130a.33.33,0,0,0,0,.65Z" style="fill:#e6e6e6"></path><path d="M130,277.82h2.3a.33.33,0,0,0,0-.65H130a.33.33,0,0,0,0,.65Z" style="fill:#e6e6e6"></path><path d="M130,279.81h2.3a.33.33,0,0,0,0-.66H130a.33.33,0,0,0,0,.66Z" style="fill:#e6e6e6"></path><path d="M130,281.79h2.3a.33.33,0,0,0,0-.65H130a.33.33,0,0,0,0,.65Z" style="fill:#e6e6e6"></path><path d="M128.51,283.77h3.75a.33.33,0,0,0,0-.65h-3.75a.33.33,0,0,0,0,.65Z" style="fill:#e6e6e6"></path><path d="M130,285.76h2.3a.33.33,0,0,0,0-.66H130a.33.33,0,0,0,0,.66Z" style="fill:#e6e6e6"></path><path d="M130,287.74h2.3a.33.33,0,0,0,0-.65H130a.33.33,0,0,0,0,.65Z" style="fill:#e6e6e6"></path><path d="M130,289.72h2.3a.33.33,0,0,0,0-.65H130a.33.33,0,0,0,0,.65Z" style="fill:#e6e6e6"></path><path d="M130,291.71h2.3a.33.33,0,0,0,0-.66H130a.33.33,0,0,0,0,.66Z" style="fill:#e6e6e6"></path><path d="M128.51,293.69h3.75a.33.33,0,0,0,0-.65h-3.75a.33.33,0,0,0,0,.65Z" style="fill:#e6e6e6"></path><path d="M102.12,322.69v-3.92h-9.8v3.92a6.46,6.46,0,0,0-4.36,6.1v10.44c0,.23,0,.45,0,.67a4.48,4.48,0,0,0,4.5,4.05H102a4.47,4.47,0,0,0,4.49-4.05c0-.22,0-.44,0-.67V328.79A6.45,6.45,0,0,0,102.12,322.69Z" style="fill:#263238"></path><path d="M102.12,322.69v-3.92h-9.8v3.92a6.46,6.46,0,0,0-4.36,6.1v10.44c0,.23,0,.45,0,.67a4.48,4.48,0,0,0,4.5,4.05H102a4.47,4.47,0,0,0,4.49-4.05c0-.22,0-.44,0-.67V328.79A6.45,6.45,0,0,0,102.12,322.69Z" style="fill:#fff;opacity:0.7000000000000001"></path><rect x="87.96" y="328.97" width="18.51" height="10" style="fill:#fff;opacity:0.6000000000000001"></rect><rect x="91.48" y="315.5" width="11.48" height="4.69" rx="0.64" style="fill:#263238"></rect><g style="opacity:0.7000000000000001"><path d="M93.39,323.09h3.88a.4.4,0,0,0,0-.8H93.39a.4.4,0,0,0,0,.8Z" style="fill:#fff"></path></g><g style="opacity:0.7000000000000001"><path d="M98.8,323.09h.68a.4.4,0,0,0,0-.8H98.8a.4.4,0,0,0,0,.8Z" style="fill:#fff"></path></g><rect x="91.48" y="315.5" width="11.48" height="4.69" rx="0.64" style="fill:#fff;opacity:0.5"></rect><path d="M127.67,322.69v-3.92h-9.8v3.92a6.45,6.45,0,0,0-4.35,6.1v10.44c0,.23,0,.45,0,.67A4.48,4.48,0,0,0,118,344h9.47A4.48,4.48,0,0,0,132,339.9c0-.22,0-.44,0-.67V328.79A6.45,6.45,0,0,0,127.67,322.69Z" style="fill:#263238"></path><path d="M127.67,322.69v-3.92h-9.8v3.92a6.45,6.45,0,0,0-4.35,6.1v10.44c0,.23,0,.45,0,.67A4.48,4.48,0,0,0,118,344h9.47A4.48,4.48,0,0,0,132,339.9c0-.22,0-.44,0-.67V328.79A6.45,6.45,0,0,0,127.67,322.69Z" style="fill:#fff;opacity:0.7000000000000001"></path><rect x="113.52" y="328.97" width="18.51" height="10" style="fill:#fff;opacity:0.6000000000000001"></rect><rect x="117.04" y="315.5" width="11.48" height="4.69" rx="0.64" style="fill:#263238"></rect><g style="opacity:0.7000000000000001"><path d="M118.94,323.09h3.89a.4.4,0,0,0,0-.8h-3.89a.4.4,0,0,0,0,.8Z" style="fill:#fff"></path></g><g style="opacity:0.7000000000000001"><path d="M124.36,323.09H125a.4.4,0,0,0,0-.8h-.68a.4.4,0,0,0,0,.8Z" style="fill:#fff"></path></g><rect x="117.04" y="315.5" width="11.48" height="4.69" rx="0.64" style="fill:#fff;opacity:0.5"></rect><path d="M153.23,322.69v-3.92h-9.8v3.92a6.46,6.46,0,0,0-4.36,6.1v10.44c0,.23,0,.45,0,.67a4.48,4.48,0,0,0,4.5,4.05h9.46a4.48,4.48,0,0,0,4.5-4.05c0-.22,0-.44,0-.67V328.79A6.45,6.45,0,0,0,153.23,322.69Z" style="fill:#263238"></path><path d="M153.23,322.69v-3.92h-9.8v3.92a6.46,6.46,0,0,0-4.36,6.1v10.44c0,.23,0,.45,0,.67a4.48,4.48,0,0,0,4.5,4.05h9.46a4.48,4.48,0,0,0,4.5-4.05c0-.22,0-.44,0-.67V328.79A6.45,6.45,0,0,0,153.23,322.69Z" style="fill:#fff;opacity:0.7000000000000001"></path><rect x="139.07" y="328.97" width="18.51" height="10" style="fill:#fff;opacity:0.6000000000000001"></rect><rect x="142.59" y="315.5" width="11.48" height="4.69" rx="0.64" style="fill:#263238"></rect><g style="opacity:0.7000000000000001"><path d="M144.5,323.09h3.88a.4.4,0,0,0,0-.8H144.5a.4.4,0,0,0,0,.8Z" style="fill:#fff"></path></g><g style="opacity:0.7000000000000001"><path d="M149.91,323.09h.68a.4.4,0,0,0,0-.8h-.68a.4.4,0,0,0,0,.8Z" style="fill:#fff"></path></g><rect x="142.59" y="315.5" width="11.48" height="4.69" rx="0.64" style="fill:#fff;opacity:0.5"></rect><path d="M157.38,276.9V261.57h-5.64V276.9a10.44,10.44,0,0,0-3.43,18.42,3,3,0,0,0,1.82.58H159a3.16,3.16,0,0,0,1.92-.65,10.44,10.44,0,0,0-3.52-18.35Z" style="fill:#263238"></path><path d="M157.38,276.9V261.57h-5.64V276.9a10.44,10.44,0,0,0-3.43,18.42,3,3,0,0,0,1.82.58H159a3.16,3.16,0,0,0,1.92-.65,10.44,10.44,0,0,0-3.52-18.35Z" style="fill:#fff;opacity:0.6000000000000001"></path><path d="M158,262.36h-6.86A1.16,1.16,0,0,1,150,261.2h0a1.15,1.15,0,0,1,1.16-1.15H158a1.15,1.15,0,0,1,1.16,1.15h0A1.16,1.16,0,0,1,158,262.36Z" style="fill:#263238"></path><path d="M158,262.36h-6.86A1.16,1.16,0,0,1,150,261.2h0a1.15,1.15,0,0,1,1.16-1.15H158a1.15,1.15,0,0,1,1.16,1.15h0A1.16,1.16,0,0,1,158,262.36Z" style="fill:#fff;opacity:0.5"></path><path d="M108,362.22a2.59,2.59,0,0,0-2.6-2.68c-2.76-.28-3.71,3-3.71,3S108.63,364.81,108,362.22Z" style="fill:#407BFF"></path><path d="M109.53,354.86a3.08,3.08,0,0,0-1.46-4c-2.63-1.34-5,.71-5,.71a9.66,9.66,0,0,1,3.37,3.31C107.29,356.71,109.53,354.86,109.53,354.86Z" style="fill:#407BFF"></path><path d="M112.13,363.91s-.12-3,2.4-3.54A5.47,5.47,0,0,1,119,361.5s-2.37,1.82-3.43,2.88C114.33,365.6,112.13,363.91,112.13,363.91Z" style="fill:#407BFF"></path><g style="opacity:0.4"><path d="M108,362.22a2.59,2.59,0,0,0-2.6-2.68c-2.76-.28-3.71,3-3.71,3S108.63,364.81,108,362.22Z" style="fill:#fff"></path><path d="M109.53,354.86a3.08,3.08,0,0,0-1.46-4c-2.63-1.34-5,.71-5,.71a9.66,9.66,0,0,1,3.37,3.31C107.29,356.71,109.53,354.86,109.53,354.86Z" style="fill:#fff"></path><path d="M112.13,363.91s-.12-3,2.4-3.54A5.47,5.47,0,0,1,119,361.5s-2.37,1.82-3.43,2.88C114.33,365.6,112.13,363.91,112.13,363.91Z" style="fill:#fff"></path></g><path d="M109.1,371.07s-.16-8.66-2.6-10c0,0,1.65-.15,2.6,2.13,0,0,1.34-5.27,0-8.19a5.48,5.48,0,0,0-3-3.07,6,6,0,0,1,4.25,4c1.1,3.38,0,10.31,0,10.31s1.57-4.17,4.41-3.86c0,0-4.25,2.28-4.33,8.66Z" style="fill:#407BFF"></path><path d="M113.18,382.17h-6.64a3,3,0,0,1-3-2.75l-.9-11.07h14.38l-.9,11.07A3,3,0,0,1,113.18,382.17Z" style="fill:#263238"></path><path d="M113.18,382.17h-6.64a3,3,0,0,1-3-2.75l-.9-11.07h14.38l-.9,11.07A3,3,0,0,1,113.18,382.17Z" style="fill:#fff;opacity:0.6000000000000001"></path><path d="M135.33,362.22a2.59,2.59,0,0,1,2.6-2.68c2.76-.28,3.71,3,3.71,3S134.74,364.81,135.33,362.22Z" style="fill:#407BFF"></path><path d="M133.84,354.86a3.07,3.07,0,0,1,1.46-4c2.63-1.34,5,.71,5,.71a9.74,9.74,0,0,0-3.38,3.31C136.08,356.71,133.84,354.86,133.84,354.86Z" style="fill:#407BFF"></path><path d="M131.24,363.91s.12-3-2.4-3.54a5.47,5.47,0,0,0-4.45,1.13s2.37,1.82,3.43,2.88C129,365.6,131.24,363.91,131.24,363.91Z" style="fill:#407BFF"></path><g style="opacity:0.4"><path d="M135.33,362.22a2.59,2.59,0,0,1,2.6-2.68c2.76-.28,3.71,3,3.71,3S134.74,364.81,135.33,362.22Z" style="fill:#fff"></path><path d="M133.84,354.86a3.07,3.07,0,0,1,1.46-4c2.63-1.34,5,.71,5,.71a9.74,9.74,0,0,0-3.38,3.31C136.08,356.71,133.84,354.86,133.84,354.86Z" style="fill:#fff"></path><path d="M131.24,363.91s.12-3-2.4-3.54a5.47,5.47,0,0,0-4.45,1.13s2.37,1.82,3.43,2.88C129,365.6,131.24,363.91,131.24,363.91Z" style="fill:#fff"></path></g><path d="M134.27,371.07s.16-8.66,2.6-10c0,0-1.65-.15-2.6,2.13,0,0-1.34-5.27,0-8.19a5.48,5.48,0,0,1,3-3.07,6,6,0,0,0-4.25,4c-1.1,3.38,0,10.31,0,10.31s-1.57-4.17-4.41-3.86c0,0,4.25,2.28,4.33,8.66Z" style="fill:#407BFF"></path><path d="M130.19,382.17h6.64a3,3,0,0,0,3-2.75l.9-11.07H126.32l.9,11.07A3,3,0,0,0,130.19,382.17Z" style="fill:#263238"></path><path d="M130.19,382.17h6.64a3,3,0,0,0,3-2.75l.9-11.07H126.32l.9,11.07A3,3,0,0,0,130.19,382.17Z" style="fill:#fff;opacity:0.6000000000000001"></path><g style="opacity:0.30000000000000004"><polygon points="171.37 205.29 135.08 205.29 76.62 365.88 76.62 381.5 107.23 381.5 171.37 205.29" style="fill:#fff"></polygon><polygon points="171.65 233.92 171.65 222.82 113.9 381.5 117.94 381.5 171.65 233.92" style="fill:#fff"></polygon></g></g></svg>