<svg xmlns="http://www.w3.org/2000/svg" viewBox="0 0 500 500"><g id="freepik--background-simple--inject-81"><path d="M412.77,236.48a154.35,154.35,0,0,0-18-42.2c-14.19-23-39.31-57.93-67.79-71.52-44-21-84-22-120,11s-58,127-71,143-52,19-67,44-10.31,84-10.31,84H433S438.24,334,412.77,236.48Z" style="fill:#407BFF"></path><path d="M412.77,236.48a154.35,154.35,0,0,0-18-42.2c-14.19-23-39.31-57.93-67.79-71.52-44-21-84-22-120,11s-58,127-71,143-52,19-67,44-10.31,84-10.31,84H433S438.24,334,412.77,236.48Z" style="fill:#fff;opacity:0.8"></path></g><g id="freepik--Clouds--inject-81"><path d="M382,200.57c-4.46-2.43-6.48-.4-8.11-2.43s4.46-7.3-7.7-12.57c0,0-.81-11.35-17.43-11.75S336.61,185.17,332.15,188s-5.68-1.62-10.14,1.22-2.43,8.51-6.08,9.33-8.51-3.65-13-.82S298.5,203,296.47,203s-6.08-1.63-8.51,0-5.27,3.64-5.27,3.64H385.26S386.47,203,382,200.57Z" style="fill:#407BFF"></path><path d="M382,200.57c-4.46-2.43-6.48-.4-8.11-2.43s4.46-7.3-7.7-12.57c0,0-.81-11.35-17.43-11.75S336.61,185.17,332.15,188s-5.68-1.62-10.14,1.22-2.43,8.51-6.08,9.33-8.51-3.65-13-.82S298.5,203,296.47,203s-6.08-1.63-8.51,0-5.27,3.64-5.27,3.64H385.26S386.47,203,382,200.57Z" style="fill:#407BFF;opacity:0.5"></path><path d="M259.72,138.72c-2.64-1.45-3.84-.24-4.8-1.45s2.64-4.32-4.57-7.44c0,0-.48-6.73-10.33-7s-7.21,6.73-9.85,8.41-3.37-1-6,.72-1.44,5-3.6,5.53-5.05-2.17-7.69-.49-2.65,3.13-3.85,3.13-3.6-1-5,0-3.13,2.16-3.13,2.16h60.79S262.36,140.16,259.72,138.72Z" style="fill:#407BFF"></path><path d="M259.72,138.72c-2.64-1.45-3.84-.24-4.8-1.45s2.64-4.32-4.57-7.44c0,0-.48-6.73-10.33-7s-7.21,6.73-9.85,8.41-3.37-1-6,.72-1.44,5-3.6,5.53-5.05-2.17-7.69-.49-2.65,3.13-3.85,3.13-3.6-1-5,0-3.13,2.16-3.13,2.16h60.79S262.36,140.16,259.72,138.72Z" style="fill:#407BFF;opacity:0.5"></path><path d="M228.84,242.17c-2.64-1.44-3.84-.24-4.81-1.44s2.65-4.33-4.56-7.45c0,0-.48-6.73-10.33-7s-7.21,6.73-9.85,8.41-3.37-1-6,.72-1.44,5.05-3.61,5.53-5-2.17-7.68-.48-2.65,3.12-3.85,3.12-3.6-1-5,0-3.12,2.16-3.12,2.16h60.79S231.48,243.61,228.84,242.17Z" style="fill:#407BFF"></path><path d="M228.84,242.17c-2.64-1.44-3.84-.24-4.81-1.44s2.65-4.33-4.56-7.45c0,0-.48-6.73-10.33-7s-7.21,6.73-9.85,8.41-3.37-1-6,.72-1.44,5.05-3.61,5.53-5-2.17-7.68-.48-2.65,3.12-3.85,3.12-3.6-1-5,0-3.12,2.16-3.12,2.16h60.79S231.48,243.61,228.84,242.17Z" style="fill:#407BFF;opacity:0.5"></path><g style="opacity:0.5"><path d="M382,200.57c-4.46-2.43-6.48-.4-8.11-2.43s4.46-7.3-7.7-12.57c0,0-.81-11.35-17.43-11.75S336.61,185.17,332.15,188s-5.68-1.62-10.14,1.22-2.43,8.51-6.08,9.33-8.51-3.65-13-.82S298.5,203,296.47,203s-6.08-1.63-8.51,0-5.27,3.64-5.27,3.64H385.26S386.47,203,382,200.57Z" style="fill:#fff"></path><path d="M382,200.57c-4.46-2.43-6.48-.4-8.11-2.43s4.46-7.3-7.7-12.57c0,0-.81-11.35-17.43-11.75S336.61,185.17,332.15,188s-5.68-1.62-10.14,1.22-2.43,8.51-6.08,9.33-8.51-3.65-13-.82S298.5,203,296.47,203s-6.08-1.63-8.51,0-5.27,3.64-5.27,3.64H385.26S386.47,203,382,200.57Z" style="fill:#fff;opacity:0.5"></path></g><g style="opacity:0.5"><path d="M259.72,138.72c-2.64-1.45-3.84-.24-4.8-1.45s2.64-4.32-4.57-7.44c0,0-.48-6.73-10.33-7s-7.21,6.73-9.85,8.41-3.37-1-6,.72-1.44,5-3.6,5.53-5.05-2.17-7.69-.49-2.65,3.13-3.85,3.13-3.6-1-5,0-3.13,2.16-3.13,2.16h60.79S262.36,140.16,259.72,138.72Z" style="fill:#fff"></path><path d="M259.72,138.72c-2.64-1.45-3.84-.24-4.8-1.45s2.64-4.32-4.57-7.44c0,0-.48-6.73-10.33-7s-7.21,6.73-9.85,8.41-3.37-1-6,.72-1.44,5-3.6,5.53-5.05-2.17-7.69-.49-2.65,3.13-3.85,3.13-3.6-1-5,0-3.13,2.16-3.13,2.16h60.79S262.36,140.16,259.72,138.72Z" style="fill:#fff;opacity:0.5"></path></g><g style="opacity:0.5"><path d="M228.84,242.17c-2.64-1.44-3.84-.24-4.81-1.44s2.65-4.33-4.56-7.45c0,0-.48-6.73-10.33-7s-7.21,6.73-9.85,8.41-3.37-1-6,.72-1.44,5.05-3.61,5.53-5-2.17-7.68-.48-2.65,3.12-3.85,3.12-3.6-1-5,0-3.12,2.16-3.12,2.16h60.79S231.48,243.61,228.84,242.17Z" style="fill:#fff"></path><path d="M228.84,242.17c-2.64-1.44-3.84-.24-4.81-1.44s2.65-4.33-4.56-7.45c0,0-.48-6.73-10.33-7s-7.21,6.73-9.85,8.41-3.37-1-6,.72-1.44,5.05-3.61,5.53-5-2.17-7.68-.48-2.65,3.12-3.85,3.12-3.6-1-5,0-3.12,2.16-3.12,2.16h60.79S231.48,243.61,228.84,242.17Z" style="fill:#fff;opacity:0.5"></path></g></g><g id="freepik--Mountains--inject-81"><path d="M62.55,404.45,182.67,253.38a7.09,7.09,0,0,1,11.23.17l74.78,99.94,70-114.6a7.1,7.1,0,0,1,12.28.3l89.85,164.49Z" style="fill:#407BFF"></path><path d="M62.55,404.45,182.67,253.38a7.09,7.09,0,0,1,11.23.17l74.78,99.94,70-114.6a7.1,7.1,0,0,1,12.28.3l89.85,164.49Z" style="fill:#fff;opacity:0.4"></path><g style="opacity:0.2"><path d="M190.83,251.2l40.58,152.9,75.9-.15L193.9,253.55A7,7,0,0,0,190.83,251.2Z"></path><path d="M351,239.19a7.06,7.06,0,0,0-6.89-3.66l59.2,168.22,37.54-.07Z"></path></g><polygon points="137.67 403.56 142.36 377.6 125.64 403.56 137.67 403.56" style="opacity:0.2"></polygon></g><g id="freepik--Trees--inject-81"><path d="M352,404h51.54c-1-6.31-5-5.2-5.58-15-.27-4.92,4.29-11,3.89-17.47-.32-5.32-5.57-10.78-6-16.87-.37-5.5,4.11-11.59,3.68-17.52-.41-5.6-5.73-11-6.2-16.79s3.92-11.83,3.41-17.57-5.94-11-6.51-16.67c-.59-5.82,3.66-12.08,3-17.65-.69-5.91-6.27-11-7-16.45-.85-6.07,3.1-12.54,2.18-17.78-1.13-6.41-7.1-11.05-8.36-15.78-2.34-8.81-2-17.3-4.81-17.86-3-.59-3.62,7.74-5.85,17.05-1.13,4.67-7,9.41-7.92,15.83-.78,5.19,3.35,11.51,2.67,17.55-.6,5.4-6,10.6-6.57,16.48-.49,5.52,3.92,11.62,3.48,17.4-.42,5.61-5.69,11-6.06,16.68s4.19,11.68,3.88,17.31c-.32,5.78-5.5,11.23-5.76,16.79-.29,5.87,4.35,11.8,4.13,17.25-.25,6-5.36,11.57-5.55,16.85-.23,6.41,4.48,12.33,4.33,17.21-.31,10.59-5.16,8.4-5.33,16.92Z" style="fill:#407BFF"></path><line x1="374.11" y1="217.6" x2="374.11" y2="401.65" style="fill:none;stroke:#263238;stroke-miterlimit:10"></line><polyline points="382.15 236.9 373.76 244.14 366.9 234.99" style="fill:none;stroke:#263238;stroke-miterlimit:10"></polyline><polyline points="382.15 268.93 373.76 276.18 366.9 267.02" style="fill:none;stroke:#263238;stroke-miterlimit:10"></polyline><polyline points="382.15 299.06 373.76 306.31 366.9 297.15" style="fill:none;stroke:#263238;stroke-miterlimit:10"></polyline><polyline points="382.15 334.91 373.76 342.15 366.9 333" style="fill:none;stroke:#263238;stroke-miterlimit:10"></polyline><polyline points="382.15 371.14 373.76 378.38 366.9 369.23" style="fill:none;stroke:#263238;stroke-miterlimit:10"></polyline><path d="M297.77,404h44.69c-.86-5.47-4.37-4.51-4.84-13-.23-4.26,3.72-9.54,3.38-15.14-.29-4.62-4.84-9.35-5.19-14.63-.32-4.77,3.56-10,3.19-15.19-.36-4.86-5-9.51-5.38-14.56s3.4-10.26,3-15.24-5.15-9.55-5.65-14.46,3.17-10.47,2.61-15.3c-.6-5.12-5.43-9.55-6.09-14.27-.73-5.25,2.7-10.87,1.9-15.41-1-5.56-6.16-9.58-7.25-13.68-2-7.64-1.78-15-4.17-15.49-2.56-.51-3.14,6.71-5.08,14.78-1,4-6,8.16-6.87,13.73-.67,4.5,2.91,10,2.32,15.21-.52,4.69-5.23,9.2-5.69,14.29-.44,4.8,3.39,10.08,3,15.09s-4.93,9.52-5.25,14.47,3.63,10.13,3.36,15-4.77,9.74-5,14.56c-.24,5.09,3.78,10.23,3.58,15-.21,5.24-4.64,10-4.8,14.61-.2,5.56,3.88,10.69,3.75,14.92-.27,9.19-4.47,7.28-4.63,14.68Z" style="fill:#407BFF"></path><line x1="316.95" y1="242.37" x2="316.95" y2="401.97" style="fill:none;stroke:#263238;stroke-miterlimit:10"></line><polyline points="323.93 259.1 316.65 265.38 310.7 257.45" style="fill:none;stroke:#263238;stroke-miterlimit:10"></polyline><polyline points="323.93 286.88 316.65 293.16 310.7 285.23" style="fill:none;stroke:#263238;stroke-miterlimit:10"></polyline><polyline points="323.93 313 316.65 319.29 310.7 311.35" style="fill:none;stroke:#263238;stroke-miterlimit:10"></polyline><polyline points="323.93 344.09 316.65 350.37 310.7 342.44" style="fill:none;stroke:#263238;stroke-miterlimit:10"></polyline><polyline points="323.93 375.51 316.65 381.79 310.7 373.85" style="fill:none;stroke:#263238;stroke-miterlimit:10"></polyline><path d="M76,404h44.69c-.86-5.47-4.37-4.51-4.83-13-.24-4.26,3.71-9.54,3.37-15.14-.28-4.62-4.83-9.35-5.19-14.63-.31-4.77,3.57-10,3.19-15.19-.35-4.86-5-9.51-5.38-14.56s3.41-10.26,3-15.24-5.14-9.55-5.64-14.46,3.17-10.47,2.61-15.3c-.6-5.12-5.44-9.55-6.09-14.27-.73-5.25,2.69-10.87,1.89-15.41-1-5.56-6.16-9.58-7.24-13.68-2-7.64-1.78-15-4.17-15.49-2.56-.51-3.15,6.71-5.08,14.78-1,4-6,8.16-6.87,13.73-.67,4.5,2.9,10,2.32,15.21-.53,4.69-5.24,9.2-5.7,14.29-.43,4.8,3.4,10.08,3,15.09s-4.94,9.52-5.26,14.47,3.63,10.13,3.36,15-4.76,9.74-5,14.56c-.25,5.09,3.77,10.23,3.58,15-.22,5.24-4.65,10-4.81,14.61-.2,5.56,3.89,10.69,3.76,14.92-.27,9.19-4.48,7.28-4.63,14.68Z" style="fill:#407BFF"></path><line x1="95.21" y1="242.37" x2="95.21" y2="401.97" style="fill:none;stroke:#263238;stroke-miterlimit:10"></line><polyline points="102.19 259.1 94.91 265.38 88.96 257.45" style="fill:none;stroke:#263238;stroke-miterlimit:10"></polyline><polyline points="102.19 286.88 94.91 293.16 88.96 285.23" style="fill:none;stroke:#263238;stroke-miterlimit:10"></polyline><polyline points="102.19 313 94.91 319.29 88.96 311.35" style="fill:none;stroke:#263238;stroke-miterlimit:10"></polyline><polyline points="102.19 344.09 94.91 350.37 88.96 342.44" style="fill:none;stroke:#263238;stroke-miterlimit:10"></polyline><polyline points="102.19 375.51 94.91 381.79 88.96 373.85" style="fill:none;stroke:#263238;stroke-miterlimit:10"></polyline></g><g id="freepik--Character--inject-81"><circle cx="308.8" cy="366.31" r="38.45" transform="translate(-74.81 79.28) rotate(-13.06)" style="fill:#263238"></circle><circle cx="308.8" cy="366.31" r="34.13" transform="translate(-114.79 142.46) rotate(-22.01)" style="fill:#fff"></circle><path d="M308.8,396.06A29.75,29.75,0,0,0,336,378.3" style="fill:none;stroke:#263238;stroke-linecap:round;stroke-linejoin:round"></path><path d="M308.8,336.57a29.73,29.73,0,0,0-26,15.24" style="fill:none;stroke:#263238;stroke-linecap:round;stroke-linejoin:round"></path><path d="M308.8,339.55a26.77,26.77,0,0,0-23.39,13.74" style="fill:none;stroke:#263238;stroke-linecap:round;stroke-linejoin:round"></path><path d="M308.29,393.07h.51A26.78,26.78,0,0,0,333.36,377" style="fill:none;stroke:#263238;stroke-linecap:round;stroke-linejoin:round"></path><path d="M308.8,342.86a23.44,23.44,0,0,0-20.51,12.07" style="fill:none;stroke:#263238;stroke-linecap:round;stroke-linejoin:round"></path><path d="M308.8,389.77a23.45,23.45,0,0,0,21.41-13.88" style="fill:none;stroke:#263238;stroke-linecap:round;stroke-linejoin:round"></path><path d="M308.8,346.5a19.81,19.81,0,0,0-17.29,10.13" style="fill:none;stroke:#263238;stroke-linecap:round;stroke-linejoin:round"></path><path d="M308.8,386.12a19.81,19.81,0,0,0,17.92-11.35" style="fill:none;stroke:#263238;stroke-linecap:round;stroke-linejoin:round"></path><circle cx="187.13" cy="366.31" r="38.45" transform="translate(-204.21 239.61) rotate(-45)" style="fill:#263238"></circle><circle cx="187.13" cy="366.31" r="34.13" transform="translate(-223.18 395.42) rotate(-67)" style="fill:#fff"></circle><path d="M187.13,396.06a29.75,29.75,0,0,0,27.23-17.76" style="fill:none;stroke:#263238;stroke-linecap:round;stroke-linejoin:round"></path><path d="M187.13,336.57a29.72,29.72,0,0,0-26,15.24" style="fill:none;stroke:#263238;stroke-linecap:round;stroke-linejoin:round"></path><path d="M187.13,339.55a26.77,26.77,0,0,0-23.39,13.74" style="fill:none;stroke:#263238;stroke-linecap:round;stroke-linejoin:round"></path><path d="M186.62,393.07h.51A26.77,26.77,0,0,0,211.69,377" style="fill:none;stroke:#263238;stroke-linecap:round;stroke-linejoin:round"></path><path d="M187.13,342.86a23.45,23.45,0,0,0-20.51,12.07" style="fill:none;stroke:#263238;stroke-linecap:round;stroke-linejoin:round"></path><path d="M187.13,389.77a23.47,23.47,0,0,0,21.42-13.88" style="fill:none;stroke:#263238;stroke-linecap:round;stroke-linejoin:round"></path><path d="M187.13,346.5a19.82,19.82,0,0,0-17.29,10.13" style="fill:none;stroke:#263238;stroke-linecap:round;stroke-linejoin:round"></path><path d="M187.13,386.12a19.8,19.8,0,0,0,17.92-11.35" style="fill:none;stroke:#263238;stroke-linecap:round;stroke-linejoin:round"></path><path d="M277.88,239.55l-4.63-20.47s-5.5-2-9.9.44c-3.63,2-16.32,19.72-20.64,25.85l-.26-.26a.66.66,0,0,0-1.14,0s-3,2.66-2.88,3.59a7,7,0,0,0,1.14,1.61l-24.69,25s-6.66.15-7.85.74-1.19.74-1.19,3,.3,4.3.74,4.45,3.12.74,3.41-.15-.74-2.52-.74-2.52.74-1.92,2.23-1.33,2.66,2.52,4.59,1.78,3.56-3.86,3.56-3.86l26.67-19.76a17.38,17.38,0,0,0,1.63,1.52c.95.62,4.28-1.89,4.23-3.13a.44.44,0,0,0,0-.14Z" style="fill:#263238"></path><path d="M214.18,293a1.33,1.33,0,0,1-1.15-.67l-6.22-10.88a1.32,1.32,0,0,1,2.3-1.31L215.33,291a1.32,1.32,0,0,1-1.15,2Z" style="fill:#fff;stroke:#263238;stroke-linecap:round;stroke-linejoin:round"></path><path d="M236.83,248.89l-25.61,26s-6.67.15-7.86.74-1.19.74-1.19,3,.3,4.29.75,4.44,3.11.74,3.4-.15-.74-2.52-.74-2.52.74-1.92,2.23-1.33,2.66,2.52,4.59,1.78,3.56-3.85,3.56-3.85L243.8,256.3Z" style="fill:#fff;stroke:#263238;stroke-linecap:round;stroke-linejoin:round"></path><path d="M211.07,280.51a3.08,3.08,0,1,0-3.08,3.07A3.08,3.08,0,0,0,211.07,280.51Z" style="fill:#263238"></path><path d="M291.6,283.31a27.55,27.55,0,0,1-8.81,2.42c-4.84.44-8.14-.22-7,3.3s8.58,4.18,14.09,2.86,8.14-3.3,7.48-6.82S293.36,282.65,291.6,283.31Z" style="fill:#263238"></path><path d="M274.21,275.6s-33.9,25.1-34.78,30.38,5.28,45.34,5.28,45.34l5.28,1.76s2.87-35.66,5.73-42.48,31.26-22.89,31.92-31S281.25,271.42,274.21,275.6Z" style="fill:#263238"></path><path d="M244.71,351.32a26.65,26.65,0,0,1-5.06.88c-2.86.22-6.82-1.32-6.82-.22s4.84,5.29,7.26,5.51,5.5.44,5.5.44l.12,1.71,3.18.93,1.1-7.49Z" style="fill:#263238"></path><rect x="233.93" y="356.83" width="11.67" height="3.3" transform="translate(187.78 -69.64) rotate(26.85)" style="fill:#fff;stroke:#263238;stroke-linecap:round;stroke-linejoin:round"></rect><polygon points="239.76 358.48 253.08 367.61 254.38 364.39 240.09 357.49 239.76 358.48" style="fill:#fff;stroke:#263238;stroke-linecap:round;stroke-linejoin:round"></polygon><path d="M309.54,364.11,282.7,296.68a1.33,1.33,0,0,0-.31-.46l1.42-3.74a1.32,1.32,0,1,0-2.47-.94l-3.1,8.17H213.71c1.15-4.74,1.74-7.64,1.77-7.75a1.32,1.32,0,1,0-2.59-.52c-.09.44-9.18,44.88-26.89,74.19a1.33,1.33,0,0,0,.45,1.81,1.32,1.32,0,0,0,1.81-.45c9.4-15.55,16.39-35.26,20.93-50.58L253,368.25a2.37,2.37,0,0,0,.32.61,2.63,2.63,0,0,0,2.13,1.09h.12l51.65-2.24a2.65,2.65,0,0,0,2.1-1.2A2.62,2.62,0,0,0,309.54,364.11Zm-96.49-61.76h64.19l-23.67,62.5-43.49-51.48C211.27,309.24,212.25,305.5,213.05,302.35Zm42.41,65,25.61-67.6,26,65.35Z" style="fill:#fff;stroke:#263238;stroke-linecap:round;stroke-linejoin:round"></path><path d="M217.26,291.7a3.08,3.08,0,1,0-3.08,3.08A3.08,3.08,0,0,0,217.26,291.7Z" style="fill:#fff;stroke:#263238;stroke-linecap:round;stroke-linejoin:round"></path><path d="M191.48,366.31a4.35,4.35,0,1,0-4.35,4.35A4.35,4.35,0,0,0,191.48,366.31Z" style="fill:#263238"></path><path d="M312.62,366.31a4.36,4.36,0,1,0-4.36,4.35A4.36,4.36,0,0,0,312.62,366.31Z" style="fill:#263238"></path><path d="M263.57,366.31a9,9,0,1,0-9,9A9,9,0,0,0,263.57,366.31Z" style="fill:#263238"></path><path d="M268.26,368.05l-13.88-3.66a2,2,0,0,0-2.48,1.44h0a2,2,0,0,0,1.69,2.53l15.56,2.11Z" style="fill:#fff;stroke:#263238;stroke-linecap:round;stroke-linejoin:round"></path><rect x="265.62" y="366.29" width="11.67" height="3.3" transform="translate(-183.4 321.34) rotate(-47.73)" style="fill:#fff;stroke:#263238;stroke-linecap:round;stroke-linejoin:round"></rect><path d="M274,274.72s-26.57,24.57-27.89,31.39,25.69,50.94,25.69,50.94l5.28-1.76s-15.19-38.75-13.21-41.61,37.52-26.87,42.81-35,2.29-16.26-1.67-20S274,274.72,274,274.72Z" style="fill:#263238"></path><polyline points="256.38 306.12 263.86 313.68 260.16 304.49" style="fill:none;stroke:#fff;stroke-linecap:round;stroke-linejoin:round;stroke-width:0.75px"></polyline><path d="M251.24,321s-5.41-13.25-3.79-17.31,28.12-24.06,28.12-24.06,13.25-4.46,22.18-2.71" style="fill:none;stroke:#fff;stroke-linecap:round;stroke-linejoin:round;stroke-width:0.75px"></path><path d="M290.45,274.48s4.59-2.16,11.35.27" style="fill:none;stroke:#fff;stroke-linecap:round;stroke-linejoin:round;stroke-width:0.75px"></path><path d="M271.79,357.05s-2.42,2.64-4.85,5.06-5.5,3.08-4.4,3.74,2.86,1.32,6.17.22,7.48-4.84,7.48-4.84l.66,1.1,3.74-2-3.52-5.06Z" style="fill:#263238"></path><path d="M258.33,187.17a16.67,16.67,0,0,0-14-4.76c-4.71.85-6,7.24-6.9,11.08L236.6,197l.08,2.69-1.5,5.72a1.26,1.26,0,0,0,1.06,1.58l1.68.22c.29,1.87,2.19,5.59,2.44,6.89,1,5,4.27,4.65,6.4,3.88a17.45,17.45,0,0,0,3.8-2.46l5,4.23,8.94-9.73-3.82-5.52S261.83,190.84,258.33,187.17Z" style="fill:#fff;stroke:#263238;stroke-linecap:round;stroke-linejoin:round"></path><path d="M240.14,201.06c.14.79,0,1.48-.31,1.53s-.67-.54-.8-1.33,0-1.48.3-1.53S240,200.27,240.14,201.06Z" style="fill:#263238"></path><path d="M237.73,197.93a2.45,2.45,0,0,1,3.71.49" style="fill:none;stroke:#263238;stroke-linecap:round;stroke-linejoin:round"></path><path d="M245.17,192.33s-2.67,3.17-1.67,4.34a51.93,51.93,0,0,0,4.33,3.83s2.34-4.17,5.67-2.5.67,5.67,1.83,7.33,5.17-.83,5.5-1.66,6.34-13,6.67-17.5-12-9-17.33-10-9.34,1.33-8.34.33,2.67-3.67-.5-4S234,177,234,179.83a3,3,0,0,0,2.83,3s-8-2-5.83,2.67,5.83,4.5,9.17,4.67A7.19,7.19,0,0,1,245.17,192.33Z" style="fill:#263238"></path><path d="M251.33,198.5h-.11a1,1,0,0,1-.88-1.1l1.17-10.34a1,1,0,1,1,2,.23l-1.16,10.33A1,1,0,0,1,251.33,198.5Z" style="fill:#fff;stroke:#263238;stroke-miterlimit:10"></path><path d="M250.88,208.23h0a4.59,4.59,0,0,1-4.6-4.59v-4.3a4.6,4.6,0,0,1,4.6-4.59h0a4.6,4.6,0,0,1,4.6,4.59v4.3A4.59,4.59,0,0,1,250.88,208.23Z" style="fill:#fff;stroke:#263238;stroke-miterlimit:10"></path><path d="M252.06,177l-1.45,10.64a2,2,0,0,0,1.77,2.28l.12,0a2,2,0,0,0,2.25-1.76l1.33-10.66a2,2,0,0,0-1.76-2.26h0A2,2,0,0,0,252.06,177Z" style="fill:#fff;stroke:#263238;stroke-miterlimit:10"></path><path d="M265.84,206s-16,14.51-15.77,16.93-.28,13.22,5.66,25.33,13.06,22.29,15.7,26.91,10.33,1.2,10.33,1.2,16.17-5.67,21.45-10.73,0-14.3,0-14.3-19.54-27.95-25.92-34.77A94.81,94.81,0,0,0,265.84,206Z" style="fill:#407BFF;stroke:#263238;stroke-linecap:round;stroke-linejoin:round"></path><path d="M249.67,225s3.25-2.89,5.88-5.28,15.95-5.05,19.28-4.39,4.17,3.67,4.84,3.5,1-4.5-2.5-10.33-8.84-8.33-11.67-6.5-9.83,10.67-12.83,14.33S248.5,222.17,249.67,225Z" style="fill:#407BFF;stroke:#263238;stroke-linecap:round;stroke-linejoin:round"></path><path d="M264.38,244.13s10.72.89,18.17-.6" style="fill:none;stroke:#263238;stroke-linecap:round;stroke-linejoin:round"></path><path d="M260.2,245s10.13,6.26,20.56,6.85" style="fill:none;stroke:#263238;stroke-linecap:round;stroke-linejoin:round"></path><path d="M269.59,218.59s-5.51-2-9.91.44S237.57,247,237.57,247l9,9.63,27.6-17.54" style="fill:#407BFF;stroke:#263238;stroke-linecap:round;stroke-linejoin:round"></path><path d="M237.64,244.63s-3,2.66-2.88,3.59,8.55,9.86,9.5,10.47,4.28-1.89,4.23-3.13-9.71-10.94-9.71-10.94A.66.66,0,0,0,237.64,244.63Z" style="fill:#407BFF;stroke:#263238;stroke-linecap:round;stroke-linejoin:round"></path></g><g id="freepik--Floor--inject-81"><path d="M52.44,407.24H443.88a2.12,2.12,0,0,0,2.12-2.12h0a2.12,2.12,0,0,0-2.12-2.12H52.44a2.12,2.12,0,0,0-2.13,2.12h0A2.12,2.12,0,0,0,52.44,407.24Z" style="fill:#263238"></path></g></svg>